<?xml version="1.0" encoding="UTF-8"?><svg xmlns="http://www.w3.org/2000/svg" viewBox="0 0 80 80"><defs><style>.d{fill:#009bde;}.e{fill:none;}</style></defs><g id="a"/><g id="b"><g id="c"><circle class="e" cx="40" cy="40" r="40"/><g><path class="d" d="M28.3,30.4c1.95,.31,2.92,.66,2.92,1.06,.24,.08,.65,.59,1.24,1.51,.47,.84,.73,1.46,.79,1.86l-.09,.36,.09,.63c0,.28-.14,.72-.43,1.34-.23,.61-.62,1.11-1.17,1.49-.93,.72-1.91,1.08-2.92,1.08-.97-.18-1.47-.57-1.51-1.17,0-.18-.06-.27-.18-.27-.82,1.24-1.54,1.87-2.13,1.87-.31-.23-.6-.67-.88-1.33v-.07l.07-.11-.16-.63c.15-1.24,.3-1.87,.43-1.87l-.07-.07,.7-1.52c0-.16,.23-.36,.7-.61l.9-.27,.18-.18,.18,.18,.09-.09h.18c.3,.01,.45,.07,.45,.18l.9-.34h.07c.25,.06,.51,.44,.79,1.13h.11l-.72,2.85c.04,.59,.33,.88,.88,.88,.49,0,1-.35,1.52-1.06,.12-.26,.18-.65,.18-1.15v-.36c0-.33-.36-1.02-1.08-2.04-.45-.66-.84-.99-1.17-.99,0-.11-.38-.25-1.13-.43l-.47,.09-.27-.09-.16,.16-.09-.07-1.24,.81-.11-.11c-.65,.26-1.11,.62-1.4,1.08-.26,0-.44,.21-.54,.63-.28,0-.54,.26-.79,.79-.31,.23-.56,.7-.73,1.42l-.07,.27-.09,.09c0,.18-.06,.27-.18,.27l.07,.09v.34l-.07,.11,.07,.09-.07,.43c0,.83,.5,1.75,1.51,2.76,.96,.59,1.85,.88,2.67,.88l1.49-.27,.11,.09c0-.11,.14-.16,.43-.16l.09-.11c.78-.19,1.17-.45,1.17-.79,.31-.55,.58-.87,.81-.97l.34,.07,.18-.18h.34c.42,.3,.63,.57,.63,.81-.1,0-.33,.35-.7,1.06-1.9,.96-3.29,1.43-4.18,1.43h-.97l-.54-.09-.09,.09h-.07c-.62,0-1.42-.35-2.4-1.06-1.14-1.49-1.76-2.62-1.87-3.39h.07l-.07-.07v-.11l.07-.97-.07-.09v-.11l.16-.16v-.09c0-.12-.08-.18-.25-.18v-.09c.24,0,.38-.18,.43-.54h.09l-.09-.07c0-.37,.15-.72,.45-1.06l-.18-.2c.35-.37,.52-.75,.52-1.15l.63-.52-.09-.11c.42-.28,.77-.69,1.06-1.24,.36,0,.54-.15,.54-.45,.5-.13,1.21-.49,2.13-1.08l.09,.11h.11l1.86-.27Zm-3.39,6.83l.09,.09-.09,.7,.2,.9h.07c1.12-.93,1.69-1.7,1.69-2.3h.09l-.09-.11,.09-.25c0-.48-.12-.72-.36-.72l-.36-.18-.81,.36-.52,1.51Z"/><path class="d" d="M54.3,30.4c1.95,.31,2.92,.66,2.92,1.06,.24,.08,.65,.59,1.24,1.51,.47,.84,.73,1.46,.79,1.86l-.09,.36,.09,.63c0,.28-.14,.72-.43,1.34-.23,.61-.62,1.11-1.17,1.49-.93,.72-1.91,1.08-2.92,1.08-.97-.18-1.47-.57-1.51-1.17,0-.18-.06-.27-.18-.27-.82,1.24-1.54,1.87-2.13,1.87-.31-.23-.6-.67-.88-1.33v-.07l.07-.11-.16-.63c.15-1.24,.3-1.87,.43-1.87l-.07-.07,.7-1.52c0-.16,.23-.36,.7-.61l.9-.27,.18-.18,.18,.18,.09-.09h.18c.3,.01,.45,.07,.45,.18l.9-.34h.07c.25,.06,.51,.44,.79,1.13h.11l-.72,2.85c.04,.59,.33,.88,.88,.88,.49,0,1-.35,1.52-1.06,.12-.26,.18-.65,.18-1.15v-.36c0-.33-.36-1.02-1.08-2.04-.45-.66-.84-.99-1.17-.99,0-.11-.38-.25-1.13-.43l-.47,.09-.27-.09-.16,.16-.09-.07-1.24,.81-.11-.11c-.65,.26-1.11,.62-1.4,1.08-.26,0-.44,.21-.54,.63-.28,0-.54,.26-.79,.79-.31,.23-.56,.7-.73,1.42l-.07,.27-.09,.09c0,.18-.06,.27-.18,.27l.07,.09v.34l-.07,.11,.07,.09-.07,.43c0,.83,.5,1.75,1.51,2.76,.96,.59,1.85,.88,2.67,.88l1.49-.27,.11,.09c0-.11,.14-.16,.43-.16l.09-.11c.78-.19,1.17-.45,1.17-.79,.31-.55,.58-.87,.81-.97l.34,.07,.18-.18h.34c.42,.3,.63,.57,.63,.81-.1,0-.33,.35-.7,1.06-1.9,.96-3.29,1.43-4.18,1.43h-.97l-.54-.09-.09,.09h-.07c-.62,0-1.42-.35-2.4-1.06-1.14-1.49-1.76-2.62-1.87-3.39h.07l-.07-.07v-.11l.07-.97-.07-.09v-.11l.16-.16v-.09c0-.12-.08-.18-.25-.18v-.09c.24,0,.38-.18,.43-.54h.09l-.09-.07c0-.37,.15-.72,.45-1.06l-.18-.2c.35-.37,.52-.75,.52-1.15l.63-.52-.09-.11c.42-.28,.77-.69,1.06-1.24,.36,0,.54-.15,.54-.45,.5-.13,1.21-.49,2.13-1.08l.09,.11h.11l1.86-.27Zm-3.39,6.83l.09,.09-.09,.7,.2,.9h.07c1.12-.93,1.69-1.7,1.69-2.3h.09l-.09-.11,.09-.25c0-.48-.12-.72-.36-.72l-.36-.18-.81,.36-.52,1.51Z"/><g><path class="d" d="M32.61,46.52c.34,.02,.46,.13,.57,.22,.64,.65,.74,1.36,1.16,2.03,.93,1.54,1.51-.25,1.71-.78,.28-.49,.2-1.04,1.04-1.48,1.1-.3,1.47,.45,1.63,.7,.44,.69,.52,1.53,1.27,2.11-.08,0-.04,0,0-.02,.17-.1,.26-.24,.34-.36,.53-.79,.39-1.6,1.28-2.37,.11-.06,.18-.12,.49-.18,.8-.13,1.31,.21,1.45,.4,.74,.83,.49,1.75,1.41,2.53,.04,0-.06,0-.09,0,1.1-.76,.92-1.78,1.9-2.58,.12-.08,.26-.2,.61-.21v.04c-1.44,.25-.43,3.58-2.99,2.97-.31-.12-.39-.22-.5-.32-.78-.81-.64-1.73-1.57-2.49-.03,0,.13,.02,.21,0,.06-.02-.01,0-.05,.03-.99,.84-.66,1.89-1.85,2.72-2.08,.76-2.2-1.84-2.57-2.22-.13-.21-.21-.45-.55-.6,0,0,.03,0-.03,0-.65,.38-.69,.9-.95,1.35-.3,.48-.29,1.03-1.11,1.46-1.5,.38-1.61-1.54-1.86-1.85-.13-.29-.23-.58-.51-.86-.09-.08-.22-.19-.46-.2v-.04h0Z"/><path class="d" d="M32.58,46.49c1.39-.03,1.44,2.16,2.42,2.65,.49-.05,.59-.81,.79-1.26,.22-.58,.49-1.4,1.19-1.67,.77-.27,1.63,.04,2.02,.8,.45,.71,.6,1.63,1.19,2.05l.69,.53-.87,.03s-.04,0-.05,0c-.4,0-.43-.52-.12-.61,.36-.28,.5-.71,.67-1.14,.18-.54,.51-1.15,1.01-1.5,.67-.35,1.64-.28,2.16,.32,.65,.68,.57,1.92,1.37,2.52l-.06-.03h.04l-.03,.24s-.03,0-.04,0c0,0-.09,0-.05,0l-.11-.21c.43-.3,.72-.73,.93-1.22,.32-.73,.86-1.78,1.84-1.67,0,.11,.01,.29,.01,.39l-.17,.04c-1.05,.45-.51,2.38-1.71,2.98-.67,.29-1.36,.26-1.92-.16-.83-.65-.91-1.97-1.69-2.56,.05,.02,.25,.11,.31,.08,.05-.03,.06,.04,.24-.16l-.02-.45c-.05-.04-.15-.13-.22-.13,.02,0,.05,0,.07,0,0,0,0,0,0,0,0,0-.02,0-.01,0h.03s-.01-.02,.12-.02c.03,0-.04-.01,.1,.02l.25,.39c-.11,.19-.1,.27-.25,.33-.58,.5-.85,2.23-1.88,2.75-1.63,.63-2.51-.58-2.87-2.01-.04-.13-.12-.33-.12-.32l.03,.08-.07-.13c-.18-.32-.21-.39-.38-.48,0,0,.23,.02,.17,.02,0,0-.18-.64-.19-.64,.02,0,.05-.02,.07-.02,.12-.03,.2,.02,.32,.09l-.11,.55h-.04v.02c-.43,.15-.86,1.39-1.28,2.07-.56,.86-1.81,.97-2.35,.04-.51-.74-.4-2.25-1.38-2.49h-.04s0-.08,.01-.1h0Zm.05,.05s-.03-.03-.02-.03c.28-.02,.52,.18,.68,.38,.49,.62,.59,1.32,1.01,1.98,.22,.43,.85,.44,1.02,.37,1.1-.6,.87-2.38,2.09-2.92,0,0,.04-.01,.02,0h-.03l-.11,.56c.11,.07,.2,.12,.3,.09,.02,0,.06-.02,.08-.03l-.18-.64c-.07,0,.18,.02,.17,.02,.31,.08,.6,.48,.72,.71l-.04-.05c.43,.6,.43,1.26,.85,1.81,.34,.48,.8,.47,1.32,.29l-.09,.05c.93-.59,1.02-2.3,1.94-2.75-.03,0-.16,.27-.17,.29l.25,.39c.16,.04,.19,.01,.21,.01-.01,0-.11,.02-.14,.02-.22,0-.3,0-.47-.15l-.02-.45c.17-.19,.2-.13,.23-.16,.06-.02,.16,0,.23,0,1.01,.69,.97,1.95,1.76,2.71,.27,.24,.83,.29,1.19,.14,.61-.34,.68-1.25,.96-1.89,.14-.37,.44-.87,.97-.94l-.16,.2v-.04l.2,.2c-.2,0-.33,.03-.52,.16-.8,.57-.98,1.97-1.93,2.53l-.11-.21c.09-.02,.08-.01,.14,0,0,0,0,0,0,0h-.02l-.03,.22c-.76-.48-.83-1.86-1.47-2.54-.35-.47-1.41-.38-1.7-.15-.9,.72-.63,2.29-1.69,2.88,.27-.1,.24-.54-.06-.59h-.02s-.07,0-.04,0h.03l-.18,.56c-.73-.53-.94-1.47-1.36-2.18-.25-.5-.68-.75-1.27-.58-.74,.35-.81,1.7-1.5,2.49-.14,.18-.47,.41-.8,.28-.3-.11-.44-.32-.57-.51-.62-.81-.6-2.22-1.67-2.51h0Z"/></g></g></g></g></svg>