<?xml version="1.0" encoding="UTF-8"?><svg xmlns="http://www.w3.org/2000/svg" viewBox="0 0 80 80"><defs><style>.d{fill:#009bde;}.e{fill:none;}</style></defs><g id="a"/><g id="b"><g id="c"><circle class="e" cx="40" cy="40" r="40"/><g><path class="d" d="M33.9,33.23c-.06-2.7-3.41-3.86-4.96-1.77-.24,.3-.73,.27-.93-.06-.31-.49-.77-.92-1.36-1.14-1.23-.51-2.8,.22-3.21,1.51-.23,.63-.16,1.33,.1,1.91l-.29,.5,.27-.54c.82,1.32,1.78,2.64,2.78,3.78,.76,.73,1.48,1.64,2.57,1.13,1.56-.7,3.07-2.23,4.18-3.65,.38-.52,.77-1.04,.86-1.68h0Zm.14,0c.31,2.63-4.23,8.5-7.14,6.6-1.77-1.16-2.99-3.35-3.7-4.99-.16-.24-.34-.73-.36-.85-.12-.22,.02-.51,.28-.54l-.29,.5c-.99-3.56,3.83-6.2,6.17-3.23h-.98c.43-.68,1.14-1.19,1.92-1.39,2.3-.76,4.93,1.58,4.1,3.91h0Z"/><path class="d" d="M56.9,33.23c-.06-2.7-3.41-3.86-4.96-1.77-.24,.3-.73,.27-.93-.06-.31-.49-.77-.92-1.36-1.14-1.23-.51-2.8,.22-3.21,1.51-.23,.63-.16,1.33,.1,1.91l-.29,.5,.27-.54c.82,1.32,1.78,2.64,2.78,3.78,.76,.73,1.48,1.64,2.57,1.13,1.56-.7,3.07-2.23,4.18-3.65,.38-.52,.77-1.04,.86-1.68h0Zm.14,0c.31,2.63-4.23,8.5-7.14,6.6-1.77-1.16-2.99-3.35-3.7-4.99-.16-.24-.34-.73-.36-.85-.12-.22,.02-.51,.28-.54l-.29,.5c-.99-3.56,3.83-6.2,6.17-3.23h-.98c.43-.68,1.14-1.19,1.92-1.39,2.3-.76,4.93,1.58,4.1,3.91h0Z"/><g><g><path class="d" d="M33.25,49.58c3.31-.51,5.7-1.12,6.71-4.24,1.47,3.75-3.49,6.07-6.71,4.24h0Z"/><path class="d" d="M46.75,49.58c-3.22,1.82-8.18-.49-6.71-4.24,1.01,3.12,3.4,3.73,6.71,4.24h0Z"/></g><circle class="d" cx="40" cy="40.76" r="1.5"/></g></g></g></g></svg>