<?xml version="1.0" encoding="UTF-8"?><svg xmlns="http://www.w3.org/2000/svg" viewBox="0 0 80 80"><defs><style>.d{fill:#009bde;}.e{fill:none;}</style></defs><g id="a"/><g id="b"><g id="c"><g><path class="d" d="M19.35,29.39l13.4,6.1c.3,.1,.4,.4,.3,.7,0,.1-.1,.2-.2,.2l-13.8,6.3,13.4-7.2v.9l-13.8-5.1c-1.3-.6-.5-2.5,.7-1.9h0Z"/><path class="d" d="M61.35,31.19l-13.8,5.1v-.9l13.4,7.2-13.8-6.2c-.4-.2-.4-.8,0-.9l13.4-6.1c1.3-.5,2.1,1.3,.8,1.8h0Z"/><path class="d" d="M39.55,42.69c-1.8,2.2-4.6,5.6-6.4,7.6l-.6-1.4c3.3-.1,7.9-.2,11.3-.1,1.2,0,2.5,.1,3.8,.1l-.6,1.5c-2.5-2.3-4.9-4.8-7.5-7.7h0Zm0,0c2.7,1.8,5.7,4,8.6,6.4,.6,.5,.2,1.5-.5,1.5-1.3,0-2.5,.1-3.8,.1-3.3,.1-7.9,0-11.3-.1-.7,0-1.2-.9-.6-1.4,2.4-2.2,5-4.5,7.6-6.5h0Z"/></g><circle class="e" cx="40" cy="40" r="40"/></g></g></svg>