<?xml version="1.0" encoding="UTF-8"?><svg xmlns="http://www.w3.org/2000/svg" viewBox="0 0 80 80"><defs><style>.d{fill:#009bde;}.e{fill:#dc272d;opacity:.2;}.f{fill:none;}</style></defs><g id="a"/><g id="b"><g id="c"><circle class="f" cx="40" cy="40" r="40"/><path class="d" d="M18.44,31.31c5.25,3.29,8.98,3.27,14.22,0-3.53,5.27-10.69,5.26-14.22,0h0Z"/><path class="d" d="M47.34,31.74c5.25,3.29,8.98,3.27,14.22,0-3.53,5.27-10.69,5.26-14.22,0h0Z"/><path class="d" d="M47.46,44.89c-.85,2.21-3.02,3.48-5.28,3.71l-2.18,.51c-3.07,.53-6.22-1.44-7.46-4.21l.11-.1c1.92,1.07,3.52,2.06,5.44,2.9,1.23,.45,2.64,.97,3.95,.45,1.86-1.05,3.26-2.38,5.31-3.34l.11,.1h0Z"/><rect class="e" x="18.44" y="38.75" width="8.44" height="8.44" rx="4.22" ry="4.22"/><rect class="e" x="53.11" y="38.75" width="8.44" height="8.44" rx="4.22" ry="4.22"/></g></g></svg>