<?xml version="1.0" encoding="UTF-8"?><svg xmlns="http://www.w3.org/2000/svg" viewBox="0 0 44.05 21.47"><defs><style>.d{fill:#231815;}</style></defs><g id="a"/><g id="b"><g id="c"><g><path class="d" d="M1.4,.09L14.83,6.15c.27,.1,.4,.41,.28,.68-.05,.11-.14,.2-.25,.25L1.02,13.37,14.41,6.17l.03,.92L.64,1.94C-.61,1.45,.15-.44,1.4,.09h0Z"/><path class="d" d="M43.4,1.94l-13.8,5.15,.03-.92,13.38,7.21-13.84-6.3c-.39-.16-.38-.75,0-.91,0,0,13.45-6.06,13.45-6.07,1.24-.53,2.03,1.34,.76,1.85h0Z"/><path class="d" d="M21.54,13.46c-1.81,2.21-4.57,5.57-6.44,7.62l-.59-1.42c3.35-.14,7.92-.19,11.27-.13,1.25,0,2.5,.07,3.76,.1l-.57,1.51c-2.43-2.32-4.75-4.82-7.43-7.67h0Zm0,0c2.65,1.83,5.66,4.01,8.57,6.38,.61,.46,.25,1.51-.51,1.51-1.27,.03-2.54,.1-3.82,.11-3.35,.06-7.93,.01-11.27-.13-.74,.05-1.15-.94-.59-1.42,2.44-2.24,5.11-4.46,7.62-6.44h0Z"/></g></g></g></svg>