<?xml version="1.0" encoding="utf-8"?>
<!-- Generator: Adobe Illustrator 26.2.1, SVG Export Plug-In . SVG Version: 6.00 Build 0)  -->
<svg version="1.1" id="레이어_1" xmlns="http://www.w3.org/2000/svg" xmlns:xlink="http://www.w3.org/1999/xlink" x="0px"
	 y="0px" viewBox="0 0 80 80" style="enable-background:new 0 0 80 80;" xml:space="preserve">
<style type="text/css">
	.st0{fill:none;}
	.st1{fill:#009BDE;}
	.st2{opacity:0.2;fill:#DC272D;}
</style>
<g id="a">
</g>
<circle class="st0" cx="40" cy="40" r="40"/>
<path class="st1" d="M-91.8,16.9l13.4,6.1c0.3,0.1,0.4,0.4,0.3,0.7c0,0.1-0.1,0.2-0.2,0.2l-13.8,6.3l13.4-7.2l0,0.9l-13.8-5.1
	C-93.8,18.2-93,16.3-91.8,16.9L-91.8,16.9L-91.8,16.9z"/>
<path class="st1" d="M-49.8,18.7l-13.8,5.1l0-0.9l13.4,7.2L-64,23.9c-0.4-0.2-0.4-0.8,0-0.9c0,0,13.4-6.1,13.4-6.1
	C-49.3,16.4-48.5,18.2-49.8,18.7L-49.8,18.7L-49.8,18.7z"/>
<path class="st1" d="M-71.6,30.2c-1.8,2.2-4.6,5.6-6.4,7.6l-0.6-1.4c3.3-0.1,7.9-0.2,11.3-0.1c1.2,0,2.5,0.1,3.8,0.1l-0.6,1.5
	C-66.6,35.6-69,33.1-71.6,30.2L-71.6,30.2L-71.6,30.2z M-71.6,30.2c2.7,1.8,5.7,4,8.6,6.4c0.6,0.5,0.2,1.5-0.5,1.5
	c-1.3,0-2.5,0.1-3.8,0.1c-3.3,0.1-7.9,0-11.3-0.1c-0.7,0-1.2-0.9-0.6-1.4C-76.8,34.5-74.2,32.2-71.6,30.2L-71.6,30.2L-71.6,30.2z"/>
<g>
	<path class="st1" d="M18.4,31.3c5.2,3.3,9,3.3,14.2,0C29.1,36.6,22,36.6,18.4,31.3L18.4,31.3z"/>
</g>
<g>
	<path class="st1" d="M47.3,31.7c5.2,3.3,9,3.3,14.2,0C58,37,50.9,37,47.3,31.7L47.3,31.7z"/>
</g>
<g>
	<path class="st1" d="M47.5,44.9c-0.8,2.2-3,3.5-5.3,3.7c0,0-2.2,0.5-2.2,0.5c-3.1,0.5-6.2-1.4-7.5-4.2c0,0,0.1-0.1,0.1-0.1
		c1.9,1.1,3.5,2.1,5.4,2.9c1.2,0.4,2.6,1,4,0.4c1.9-1.1,3.3-2.4,5.3-3.3C47.4,44.8,47.5,44.9,47.5,44.9L47.5,44.9z"/>
</g>
<path class="st2" d="M22.7,47.2L22.7,47.2c-2.3,0-4.2-1.9-4.2-4.2v0c0-2.3,1.9-4.2,4.2-4.2h0c2.3,0,4.2,1.9,4.2,4.2v0
	C26.9,45.3,25,47.2,22.7,47.2z"/>
<path class="st2" d="M57.3,47.2L57.3,47.2c-2.3,0-4.2-1.9-4.2-4.2v0c0-2.3,1.9-4.2,4.2-4.2h0c2.3,0,4.2,1.9,4.2,4.2v0
	C61.6,45.3,59.7,47.2,57.3,47.2z"/>
</svg>
