<?xml version="1.0" encoding="UTF-8"?><svg xmlns="http://www.w3.org/2000/svg" viewBox="0 0 97.82 200"><defs><style>.d{fill:#396c47;}</style></defs><g id="a"/><g id="b"><g id="c"><g><path class="d" d="M48.92,139.37c-18.97-.07-37.52-10.55-45.02-28.42-.29-.88-1.28-3.43-1.6-4.35C.47,100.73-.12,94.51,.02,88.38c0-3.76,0-14.09,0-18,.07-6.95-.17-17.21,.13-24.07,.18-5.11,1.37-10.28,3.21-15.05l.54-1.45,.67-1.39,1.35-2.78,1.6-2.64c.45-.75,1.15-1.89,1.72-2.56,1.05-1.46,2.66-3.5,3.92-4.77C36.05-8.97,75.74-3.72,91.92,25.64c.49,.93,1.55,3.27,2.02,4.18,2.08,5.23,3.57,10.85,3.75,16.5,.23,3.43,.1,8.59,.13,12.07-.02,5.98,.02,18.02,0,24-.02,1.91,.01,7.13,0,9-.02,5.14-.78,10.29-2.27,15.22-6.29,20.35-25.88,32.65-46.62,32.77h0Zm0,0c16.1,0,30.98-9.36,38.94-23.14l1.48-2.5,1.28-2.61,.64-1.3,.5-1.36c2.56-6.33,3.3-13.28,3.14-20.07,0-3.78,0-14.08,0-18,0-3.95,0-14.17,0-18,.16-6.79-.57-13.74-3.14-20.07-.51-1.58-1.7-3.78-2.4-5.29-.89-1.39-2.09-3.63-3.13-4.9C77.82,10.19,63.52,2.87,48.92,2.85c-14.6,.02-28.9,7.34-37.32,19.28-1.02,1.27-2.25,3.5-3.13,4.9-.71,1.52-1.89,3.71-2.4,5.29-1.73,4.49-2.85,9.33-3.02,14.15-.22,3.33-.09,8.53-.12,11.92,.02,5.98-.01,18.02,0,24,.01,1.94,0,7.12,0,9,.02,4.87,.73,9.68,2.14,14.34,6.5,19.08,23.15,33.52,43.85,33.65h0Z"/><path class="d" d="M49.4,50.87c-3.74,.11-8.5-2.39-8.23-6.79,.01-.33,0-2.41,0-2.8,0-2.23,0-6.73,0-8.96v-2.24c-.33-4.64,3.56-8.86,8.23-8.8,4.67-.06,8.56,4.15,8.23,8.8v2.24c0,2.23,0,6.73,0,8.96,0,.38,0,2.46,0,2.8,.23,4.37-4.5,6.89-8.23,6.79h0Zm0,0c3.58,0,5.14-3.34,5.29-6.35,.06-.65,.02-2.56,.03-3.24,0-2.23,0-6.73,0-8.96-.01-.68,.02-2.58-.02-3.24-.17-2.68-2.63-4.94-5.3-4.89-2.68-.04-5.14,2.21-5.3,4.89-.04,.65-.02,2.56-.02,3.24,0,2.23,0,6.73,0,8.96,0,.39,0,2.45,0,2.8,.12,3.11,1.55,6.77,5.33,6.79h0Z"/><g><path class="d" d="M24.6,151.75c2.36,1.51,4.6,3.14,6.84,4.77l5.79,5.81,11.61,11.61h-2.05c3.84-3.84,13.7-13.7,17.41-17.41,2.25-1.62,4.48-3.25,6.83-4.78-1.52,2.35-3.15,4.58-4.78,6.83l-5.8,5.8-11.61,11.61-1.03,1.03-1.03-1.03c-3.84-3.84-13.7-13.7-17.42-17.4-1.63-2.24-3.26-4.48-4.77-6.84h0Z"/><path class="d" d="M24.23,174.73c2.36,1.51,4.6,3.14,6.84,4.77l5.79,5.81,11.61,11.61h-2.05c3.84-3.84,13.7-13.7,17.41-17.41,2.25-1.62,4.48-3.25,6.83-4.78-1.52,2.35-3.15,4.58-4.78,6.83l-5.8,5.8-11.61,11.61-1.03,1.03-1.03-1.03c-3.84-3.84-13.7-13.7-17.42-17.4-1.63-2.24-3.26-4.48-4.77-6.84h0Z"/></g></g></g></g></svg>