<?xml version="1.0" encoding="UTF-8"?><svg xmlns="http://www.w3.org/2000/svg" xmlns:xlink="http://www.w3.org/1999/xlink" viewBox="0 0 1250 602"><defs><style>.x,.y{fill:#009bde;}.a`{fill:url(#j);}.a`,.aa{fill-rule:evenodd;}.ab{fill:#fff;}.ac{fill:#dc272d;}.ad{stroke:#009bde;}.ad,.ae,.af,.ag{fill:none;}.ah{mask:url(#e);}.ae,.ag{stroke:#fff;}.ai{filter:url(#r);}.aj{filter:url(#o);}.ak{clip-path:url(#n);}.aa{fill:url(#h);}.al{clip-path:url(#u);}.am,.an{fill:#ce292d;}.ao{filter:url(#v);}.ap{fill:url(#g);}.aq{fill:#ee5f5f;}.ar{fill:url(#i);}.as{clip-path:url(#t);}.at{clip-path:url(#d);}.au{fill:#ffeef4;}.av{fill:#eef8ff;}.aw{fill:#161616;}.ax{clip-path:url(#q);}.ay{fill:#f1f1f1;}.an{font-family:Rockwell-ExtraBold, Rockwell Extra Bold;font-size:4.97px;}.b`{fill:#fef1c2;}.ag{stroke-width:2px;}.ba{filter:url(#l);}.bb{fill:url(#k);}.y{opacity:.2;}</style><clipPath id="d"><rect class="af" width="1250" height="602"/></clipPath><mask id="e" x="-709.14" y="-174.71" width="2124.22" height="988.3" maskUnits="userSpaceOnUse"><g id="f"><rect class="aq" y="0" width="1250" height="602"/></g></mask><linearGradient id="g" x1="1419.52" y1="306.86" x2="185.52" y2="300.86" gradientTransform="translate(0 604) scale(1 -1)" gradientUnits="userSpaceOnUse"><stop offset="0" stop-color="#f26161"/><stop offset=".39" stop-color="#f9aaaa" stop-opacity=".61"/><stop offset="1" stop-color="#f26161" stop-opacity="0"/></linearGradient><linearGradient id="h" x1="-1009.37" y1="257.76" x2="767.56" y2="462.95" gradientTransform="translate(0 604) scale(1 -1)" gradientUnits="userSpaceOnUse"><stop offset="0" stop-color="#ff8058" stop-opacity=".8"/><stop offset=".79" stop-color="#63aee4" stop-opacity=".3"/><stop offset="1" stop-color="#ffc2c2" stop-opacity="0"/></linearGradient><radialGradient id="i" cx="-650.1" cy="1582.48" fx="-650.1" fy="1582.48" r="1" gradientTransform="translate(-344952.4 195726.73) rotate(90) scale(300.48 -218.15)" gradientUnits="userSpaceOnUse"><stop offset="0" stop-color="#009bde"/><stop offset="1" stop-color="#ffabab" stop-opacity="0"/></radialGradient><linearGradient id="j" x1="-952.12" y1="-1150.91" x2="762.08" y2="438.4" gradientTransform="translate(0 604) scale(1 -1)" gradientUnits="userSpaceOnUse"><stop offset="0" stop-color="#f96c40" stop-opacity=".8"/><stop offset=".47" stop-color="#e9feac" stop-opacity=".8"/><stop offset=".79" stop-color="#f5b7ff" stop-opacity=".3"/><stop offset="1" stop-color="#ffc2c2" stop-opacity="0"/></linearGradient><radialGradient id="k" cx="-648.4" cy="1582.5" fx="-648.4" fy="1582.5" r="1" gradientTransform="translate(-330283.24 135837.04) rotate(90) scale(209.27 -209.27)" xlink:href="#i"/><filter id="l" filterUnits="userSpaceOnUse"><feOffset dx="-4" dy="10"/><feGaussianBlur result="m" stdDeviation="10"/><feFlood flood-color="#5c5c5c" flood-opacity=".25"/><feComposite in2="m" operator="in"/><feComposite in="SourceGraphic"/></filter><clipPath id="n"><rect class="af" x="225.67" y="79.31" width="730.54" height="403.66" rx="8" ry="8"/></clipPath><filter id="o" filterUnits="userSpaceOnUse"><feOffset dx="-4" dy="10"/><feGaussianBlur result="p" stdDeviation="10"/><feFlood flood-color="#5c5c5c" flood-opacity=".25"/><feComposite in2="p" operator="in"/><feComposite in="SourceGraphic"/></filter><clipPath id="q"><rect class="af" x="859.75" y="166.58" width="174.58" height="356.11" rx="8" ry="8"/></clipPath><filter id="r" filterUnits="userSpaceOnUse"><feOffset dx="-4" dy="10"/><feGaussianBlur result="s" stdDeviation="10"/><feFlood flood-color="#5c5c5c" flood-opacity=".25"/><feComposite in2="s" operator="in"/><feComposite in="SourceGraphic"/></filter><clipPath id="t"><rect class="af" x="859.75" y="166.58" width="174.96" height="719.35" rx="8" ry="8"/></clipPath><clipPath id="u"><rect class="af" x="859.75" y="166.58" width="174.96" height="765.46"/></clipPath><filter id="v" filterUnits="userSpaceOnUse"><feOffset dx="0" dy="10"/><feGaussianBlur result="w" stdDeviation="30"/><feFlood flood-color="#009bde" flood-opacity=".2"/><feComposite in2="w" operator="in"/><feComposite in="SourceGraphic"/></filter></defs><g id="a"/><g id="b"><g id="c"><rect class="ab" width="1250" height="602"/><g class="at"><g class="ah"><g><rect class="ap" width="1250" height="602"/><rect class="ay" width="1250" height="602"/><path class="aa" d="M209.79,333.45c81.08,33.85,143.6,94.58,227.28,115.83,149.6,37.99,344.87,150.55,433.38,51.95,86.79-96.68-47.57-268.26-122.35-398.41-51.03-88.81-131.01-158.68-225.26-206.57-77.13-39.19-155.25-21.24-237.31-28.48-114.57-10.11-241.13-75.07-329.91-21.59C-157.58-85.63-291.15,42.37-222.57,173.85c71.82,137.7,284.36,97.8,432.36,159.6Z"/><rect class="ar" x="51.48" y="86.84" width="436.31" height="600.95" transform="translate(-152.85 177.02) rotate(-28.69)"/><path class="a`" d="M226.43,695.31c155.72,20.6,303.65,74.16,453.36,80.53,267.62,11.38,667.61,94.76,728.55-30.28,59.74-122.61-291.23-282.43-514.44-409.1-152.32-86.43-335.28-146.45-523.16-179.69-153.77-27.21-263.11,7.99-398.97,16.54-189.7,11.94-442.51-33.4-540.15,42.59-124.53,96.9-233.2,262.97-18.73,392.33,224.61,135.48,529.29,49.48,813.55,87.09Z"/><rect class="bb" x="679.78" y="-64.22" width="418.55" height="418.55" transform="translate(39.53 444.66) rotate(-28.69)"/><rect class="ap" width="1250" height="602"/></g></g></g><g><g class="ba"><g class="ak"><g><rect class="ab" x="225.67" y="260.59" width="730.54" height="284.27"/><g><image transform="translate(225.67 98.33) scale(.38)" xlink:href="../../../../../Downloads/unsplash_FSlsXAQTYls.jpg"/><rect class="af" x="390.8" y="98.33" width="565.41" height="289.17"/><rect class="af" x="225.67" y="97.95" width="730.54" height="291.45"/><rect class="ac" x="225.67" y="79.31" width="730.54" height="19.02"/><rect class="af" x="482.5" y="451.81" width="102.73" height="102.73"/><rect class="af" x="482.5" y="451.81" width="102.73" height="102.73"/><rect class="x" x="482.5" y="562.15" width="25.49" height="9.89"/><path class="ab" d="M489.88,567.33v.61h.27c.17,0,.3-.02,.37-.06,.07-.05,.11-.13,.11-.24s-.03-.19-.1-.24c-.07-.05-.2-.07-.39-.07h-.27Zm0-1.13v.56h.27c.18,0,.3-.02,.35-.08,.05-.05,.08-.12,.08-.21,0-.07-.02-.14-.07-.19-.05-.06-.18-.09-.4-.09h-.22Zm.29,2.42h-1.75v-.74h.27v-1.62h-.27v-.74h1.9c.37,0,.66,.02,.86,.06,.2,.05,.36,.13,.47,.27,.11,.13,.17,.29,.17,.47s-.05,.32-.16,.42c-.11,.11-.25,.18-.41,.22,.22,.06,.39,.16,.5,.3,.12,.14,.18,.3,.18,.47,0,.21-.07,.38-.2,.53-.13,.14-.32,.24-.55,.29-.23,.05-.57,.07-1.01,.07Zm5.2,0h-2.96v-.74h.24v-1.62h-.25v-.74h2.96v.99h-.81v-.25h-.7v.48h.61v.63h-.61v.51h.7v-.25h.81v.99Zm1.26,0h-.7v-.99h.7c.08,.27,.24,.4,.47,.4,.17,0,.25-.06,.25-.2,0-.07-.03-.13-.09-.18-.06-.05-.19-.12-.39-.21-.25-.11-.44-.21-.56-.3-.11-.08-.21-.18-.29-.32-.08-.13-.12-.28-.12-.44,0-.29,.09-.51,.28-.68,.19-.16,.41-.24,.69-.24s.5,.08,.69,.23v-.19h.7v.88h-.69c-.08-.24-.23-.37-.45-.37-.15,0-.23,.06-.23,.19,0,.06,.02,.11,.06,.14,.04,.03,.18,.1,.4,.22,.3,.15,.51,.26,.61,.33,.05,.03,.1,.08,.16,.14,.05,.06,.1,.13,.14,.19,.08,.14,.12,.3,.12,.47,0,.26-.1,.48-.29,.66-.19,.19-.44,.28-.73,.28-.27,0-.52-.08-.74-.24v.2Zm4.63,0h-1.74v-.74h.27v-1.62h-.36v.56h-.58v-1.31h3.07v1.31h-.58v-.56h-.35v1.62h.27v.74Z"/><rect class="af" x="596.65" y="451.81" width="102.73" height="102.73"/><rect class="x" x="596.65" y="562.15" width="25.49" height="9.89"/><path class="ab" d="M604.02,567.33v.61h.27c.17,0,.3-.02,.37-.06,.07-.05,.11-.13,.11-.24s-.03-.19-.1-.24c-.07-.05-.2-.07-.39-.07h-.27Zm0-1.13v.56h.27c.18,0,.3-.02,.35-.08,.05-.05,.08-.12,.08-.21,0-.07-.02-.14-.07-.19-.05-.06-.18-.09-.4-.09h-.22Zm.29,2.42h-1.75v-.74h.27v-1.62h-.27v-.74h1.9c.37,0,.66,.02,.86,.06,.2,.05,.36,.13,.47,.27,.11,.13,.17,.29,.17,.47s-.05,.32-.16,.42c-.11,.11-.25,.18-.41,.22,.22,.06,.39,.16,.5,.3,.12,.14,.18,.3,.18,.47,0,.21-.07,.38-.2,.53-.13,.14-.32,.24-.55,.29-.23,.05-.57,.07-1.01,.07Zm5.2,0h-2.96v-.74h.24v-1.62h-.24v-.74h2.96v.99h-.81v-.25h-.71v.48h.62v.63h-.62v.51h.71v-.25h.81v.99Zm1.26,0h-.7v-.99h.7c.08,.27,.24,.4,.47,.4,.17,0,.25-.06,.25-.2,0-.07-.03-.13-.09-.18-.06-.05-.19-.12-.4-.21-.25-.11-.44-.21-.56-.3-.11-.08-.21-.18-.29-.32-.08-.13-.12-.28-.12-.44,0-.29,.1-.51,.28-.68,.19-.16,.41-.24,.69-.24s.5,.08,.69,.23v-.19h.7v.88h-.69c-.09-.24-.24-.37-.45-.37-.15,0-.22,.06-.22,.19,0,.06,.02,.11,.06,.14,.04,.03,.18,.1,.4,.22,.3,.15,.51,.26,.61,.33,.05,.03,.11,.08,.16,.14,.05,.06,.1,.13,.14,.19,.08,.14,.12,.3,.12,.47,0,.26-.1,.48-.29,.66-.19,.19-.44,.28-.73,.28-.27,0-.52-.08-.74-.24v.2Zm4.63,0h-1.74v-.74h.27v-1.62h-.36v.56h-.58v-1.31h3.07v1.31h-.58v-.56h-.35v1.62h.27v.74Z"/><rect class="x" x="710.79" y="562.15" width="25.49" height="9.89"/><path class="ab" d="M718.17,567.33v.61h.27c.17,0,.3-.02,.37-.06,.07-.05,.11-.13,.11-.24s-.03-.19-.1-.24c-.07-.05-.2-.07-.39-.07h-.27Zm0-1.13v.56h.27c.18,0,.3-.02,.35-.08,.05-.05,.08-.12,.08-.21,0-.07-.03-.14-.07-.19-.05-.06-.19-.09-.41-.09h-.22Zm.29,2.42h-1.75v-.74h.27v-1.62h-.27v-.74h1.89c.37,0,.66,.02,.86,.06,.2,.05,.36,.13,.47,.27,.11,.13,.17,.29,.17,.47s-.05,.32-.16,.42c-.11,.11-.25,.18-.41,.22,.22,.06,.39,.16,.51,.3,.12,.14,.18,.3,.18,.47,0,.21-.07,.38-.2,.53s-.32,.24-.55,.29c-.23,.05-.57,.07-1.01,.07Zm5.2,0h-2.96v-.74h.24v-1.62h-.24v-.74h2.96v.99h-.81v-.25h-.71v.48h.62v.63h-.62v.51h.71v-.25h.81v.99Zm1.26,0h-.7v-.99h.7c.08,.27,.24,.4,.47,.4,.17,0,.25-.06,.25-.2,0-.07-.03-.13-.09-.18-.06-.05-.19-.12-.4-.21-.25-.11-.44-.21-.56-.3-.11-.08-.21-.18-.29-.32-.08-.13-.12-.28-.12-.44,0-.29,.1-.51,.28-.68,.19-.16,.41-.24,.69-.24s.5,.08,.69,.23v-.19h.7v.88h-.69c-.09-.24-.24-.37-.45-.37-.15,0-.22,.06-.22,.19,0,.06,.02,.11,.06,.14,.04,.03,.18,.1,.4,.22,.3,.15,.51,.26,.61,.33,.05,.03,.11,.08,.16,.14,.05,.06,.1,.13,.14,.19,.08,.14,.12,.3,.12,.47,0,.26-.1,.48-.29,.66-.19,.19-.44,.28-.73,.28-.27,0-.52-.08-.74-.24v.2Zm4.63,0h-1.74v-.74h.27v-1.62h-.36v.56h-.58v-1.31h3.07v1.31h-.58v-.56h-.35v1.62h.27v.74Z"/><rect class="ac" x="739.33" y="562.15" width="23.97" height="9.89"/><path class="ab" d="M746.46,568.62h-1.27v-.74h.27v-1.62h-.27v-.74h1.47l1.13,1.62v-.88h-.25v-.74h1.25v.74h-.27v2.4h-1.02l-1.31-1.88v1.09h.27v.74Zm5.73,0h-2.96v-.74h.24v-1.62h-.24v-.74h2.96v.99h-.81v-.25h-.71v.48h.62v.63h-.62v.51h.71v-.25h.81v.99Zm2.45,.03h-.98l-.87-2.39h-.22v-.74h1.61v.74h-.23l.37,1.34,.46-1.34h-.23v-.74h1.35v.74h-.23l.47,1.34,.37-1.34h-.22v-.74h1.25v.74h-.21l-.88,2.39h-.96l-.42-1.19-.42,1.19Z"/><path class="ac" d="M507.41,422.76c0,1.21,.12,2.02,.35,2.44,.22,.43,.57,.64,1.05,.64s.83-.21,1.06-.62c.23-.42,.35-1.24,.35-2.47s-.11-2-.34-2.43c-.22-.43-.58-.64-1.07-.64s-.82,.21-1.05,.62c-.23,.41-.35,1.23-.35,2.46Zm-4.71,0c0-.91,.22-1.78,.66-2.63,.44-.84,1.12-1.55,2.04-2.13,.33-.2,.66-.36,1.01-.48,.35-.12,.73-.21,1.13-.27,.41-.07,.83-.1,1.28-.1,1.95,0,3.45,.57,4.52,1.71,.53,.56,.93,1.17,1.2,1.83,.27,.66,.41,1.35,.41,2.08,0,1.51-.55,2.83-1.65,3.95-1.1,1.12-2.59,1.68-4.47,1.68s-3.29-.53-4.42-1.58c-1.13-1.05-1.7-2.4-1.7-4.05Zm14.63,.27h-.91v-2.38h4.84v3.61c0,.61,.06,1.02,.17,1.23,.11,.21,.34,.32,.7,.32,.44,0,.84-.12,1.22-.35v-2.42h-1.04v-2.38h4.96v5.19h.91v2.38h-4.84v-.96c-1.04,.73-2.09,1.1-3.18,1.1-.78,0-1.44-.25-2-.74-.56-.49-.84-1.43-.84-2.79v-1.79Zm18.31,5.19h-6.1v-2.38h1.03v-2.81h-1.03v-2.38h4.7v1.9c.18-.47,.45-.88,.82-1.23,.35-.34,.71-.56,1.08-.66,.35-.1,.86-.15,1.54-.15v3.33c-.09,0-.2,0-.33,0-.8,0-1.4,.08-1.79,.24-.41,.17-.68,.39-.83,.66-.15,.28-.23,.65-.23,1.11h1.15v2.38Zm12.52-4.52v2.14h.94c.6,0,1.04-.08,1.3-.23,.26-.16,.39-.43,.39-.83,0-.37-.12-.64-.35-.82-.23-.17-.69-.26-1.36-.26h-.93Zm0-3.96v1.98h.93c.63,0,1.04-.09,1.24-.27,.19-.18,.28-.42,.28-.72,0-.25-.09-.48-.26-.69-.17-.2-.64-.3-1.41-.3h-.78Zm1,8.47h-6.14v-2.6h.94v-5.66h-.94v-2.6h6.63c1.3,0,2.31,.08,3.02,.23,.7,.16,1.25,.47,1.65,.93,.4,.47,.6,1.02,.6,1.65s-.19,1.1-.57,1.47c-.39,.37-.86,.63-1.42,.78,.76,.23,1.35,.58,1.76,1.06,.42,.49,.62,1.04,.62,1.65,0,.73-.23,1.35-.7,1.86-.47,.5-1.11,.83-1.93,.99-.81,.16-1.98,.24-3.53,.24Zm11.67-4.38h2.21c.01-.16,.02-.24,.02-.27,0-.41-.1-.75-.31-1.02-.21-.27-.48-.4-.83-.4s-.62,.15-.81,.44c-.19,.3-.28,.66-.28,1.09,0,.06,0,.11,0,.16Zm2.5,1.98l3.24,.4c-.15,.34-.35,.64-.61,.91-.26,.27-.58,.5-.95,.69-.75,.41-1.66,.61-2.71,.61-1.76,0-3.09-.37-3.98-1.1-.89-.73-1.33-1.68-1.33-2.86s.44-2.12,1.32-2.89c.87-.77,2.05-1.15,3.53-1.15s2.6,.36,3.5,1.09c.88,.72,1.36,1.82,1.41,3.3h-5.96c.02,1.23,.47,1.84,1.37,1.84,.54,0,.93-.28,1.17-.84Zm7.81,2.49h-2.43v-2.4h2.27c.58,.61,1.22,.92,1.91,.92s1.05-.14,1.05-.43c0-.15-.08-.26-.23-.34-.16-.08-.57-.21-1.24-.37-.54-.15-1.14-.31-1.79-.51-.57-.16-1.01-.36-1.34-.61-.34-.24-.56-.48-.68-.72-.12-.23-.19-.54-.19-.92,0-.84,.3-1.45,.89-1.85,.59-.39,1.33-.59,2.24-.59s1.72,.18,2.36,.53v-.39h2.4v2.2h-2.22c-.55-.53-1.21-.79-1.97-.79-.6,0-.9,.16-.9,.48,0,.15,.09,.25,.27,.3,.15,.05,.65,.16,1.5,.34,.96,.2,1.71,.41,2.26,.61,.54,.2,.94,.47,1.21,.8,.27,.33,.4,.74,.4,1.23,0,.87-.32,1.52-.98,1.94-.65,.41-1.44,.62-2.39,.62s-1.74-.17-2.4-.51v.47Zm13.51-2.86v2.33c-.25,.17-.62,.32-1.11,.45-.51,.14-1,.2-1.47,.2-.59,0-1.09-.1-1.51-.29-.43-.2-.76-.46-.98-.8-.12-.19-.21-.37-.27-.52-.06-.16-.1-.34-.12-.54-.04-.34-.05-1.01-.05-1.99v-1.27h-.97v-2.38h.97v-1.16l3.93-1.87v3.03h1.58v2.38h-1.58v1.47c0,.48,.04,.8,.13,.96,.08,.16,.26,.24,.53,.24,.25,0,.56-.08,.92-.24Zm11.18-5.71v2.04h.82c.57,0,.99-.07,1.25-.2,.25-.14,.37-.4,.37-.79,0-.25-.07-.47-.2-.65-.13-.17-.3-.28-.52-.33-.21-.05-.56-.07-1.06-.07h-.66Zm1.09,8.47h-6.34v-2.6h1.05v-5.66h-1.05v-2.6h6.66c1.53,0,2.65,.15,3.36,.44,.71,.3,1.23,.71,1.56,1.23s.5,1.09,.5,1.71c0,.76-.2,1.4-.59,1.9-.4,.51-.92,.88-1.57,1.11-.64,.22-1.63,.34-2.97,.34h-1.69v1.52h1.09v2.6Zm13.04,0h-6.1v-2.38h1.03v-2.81h-1.03v-2.38h4.7v1.9c.18-.47,.45-.88,.82-1.23,.35-.34,.71-.56,1.08-.66,.35-.1,.86-.15,1.54-.15v3.33c-.09,0-.2,0-.33,0-.8,0-1.4,.08-1.79,.24-.41,.17-.68,.39-.83,.66-.15,.28-.23,.65-.24,1.11h1.15v2.38Zm7.02-3.81c0,1.21,.43,1.81,1.3,1.81,.91,0,1.37-.61,1.37-1.83,0-.56-.11-.99-.33-1.3-.23-.31-.55-.46-.97-.46s-.74,.15-.99,.45c-.25,.3-.38,.74-.38,1.32Zm-3.97-.02c0-1.11,.47-2.05,1.4-2.82,.94-.76,2.2-1.15,3.79-1.15s2.91,.37,3.91,1.11c1,.74,1.5,1.7,1.5,2.89s-.48,2.1-1.43,2.86c-.96,.76-2.22,1.15-3.79,1.15-1.69,0-3.02-.38-3.96-1.15-.95-.76-1.42-1.72-1.42-2.9Zm18.99,0c0-.47-.11-.87-.33-1.19-.22-.31-.54-.47-.98-.47-.89,0-1.33,.57-1.33,1.72,0,.47,.11,.86,.33,1.17,.21,.31,.54,.47,.97,.47,.4,0,.72-.14,.97-.41,.25-.28,.37-.71,.37-1.3Zm4.89,1.44v2.38h-4.91v-.51c-.73,.43-1.57,.65-2.53,.65-1.07,0-2.01-.32-2.83-.98-.82-.65-1.23-1.58-1.23-2.79,0-1.31,.38-2.31,1.14-3.03,.76-.7,1.78-1.05,3.05-1.05,.94,0,1.74,.21,2.4,.62v-1.39h-.97v-2.38h4.89v8.47h.99Zm2.16-2.81h-.91v-2.38h4.84v3.61c0,.61,.06,1.02,.17,1.23,.11,.21,.34,.32,.7,.32,.44,0,.84-.12,1.22-.35v-2.42h-1.04v-2.38h4.96v5.19h.91v2.38h-4.84v-.96c-1.03,.73-2.1,1.1-3.18,1.1-.78,0-1.44-.25-2-.74-.56-.49-.84-1.43-.84-2.79v-1.79Zm19.22,2.08l2.93,.66c-.25,.84-.77,1.5-1.58,1.97-.81,.47-1.83,.7-3.02,.7-1.59,0-2.85-.36-3.76-1.08-.92-.72-1.37-1.68-1.37-2.89s.43-2.11,1.28-2.86c.84-.74,1.91-1.11,3.19-1.11,1.08,0,1.92,.22,2.51,.65v-.51h2.39v3.23h-2.39c-.3-.86-.8-1.3-1.51-1.3-.48,0-.85,.18-1.11,.55-.26,.38-.39,.84-.39,1.38,0,.59,.14,1.05,.42,1.39,.27,.34,.64,.51,1.08,.51,.73,0,1.18-.43,1.34-1.3Zm10.52,.34v2.33c-.25,.17-.62,.32-1.11,.45-.51,.14-1,.2-1.47,.2-.59,0-1.09-.1-1.51-.29-.43-.2-.76-.46-.97-.8-.12-.19-.21-.37-.27-.52-.06-.16-.1-.34-.13-.54-.03-.34-.05-1.01-.05-1.99v-1.27h-.97v-2.38h.97v-1.16l3.93-1.87v3.03h1.58v2.38h-1.58v1.47c0,.48,.04,.8,.13,.96,.08,.16,.26,.24,.53,.24,.25,0,.56-.08,.92-.24Zm4.28,2.86h-2.43v-2.4h2.27c.58,.61,1.22,.92,1.91,.92s1.05-.14,1.05-.43c0-.15-.08-.26-.23-.34-.16-.08-.57-.21-1.24-.37-.54-.15-1.14-.31-1.79-.51-.57-.16-1.02-.36-1.34-.61-.34-.24-.56-.48-.68-.72-.13-.23-.19-.54-.19-.92,0-.84,.3-1.45,.89-1.85,.59-.39,1.34-.59,2.24-.59s1.72,.18,2.36,.53v-.39h2.4v2.2h-2.22c-.55-.53-1.21-.79-1.97-.79-.6,0-.89,.16-.89,.48,0,.15,.09,.25,.26,.3,.15,.05,.65,.16,1.5,.34,.96,.2,1.72,.41,2.26,.61,.54,.2,.94,.47,1.21,.8,.26,.33,.4,.74,.4,1.23,0,.87-.32,1.52-.97,1.94-.65,.41-1.44,.62-2.39,.62s-1.74-.17-2.39-.51v.47Z"/><path class="ac" d="M507.41,422.76c0,1.21,.12,2.02,.35,2.44,.22,.43,.57,.64,1.05,.64s.83-.21,1.06-.62c.23-.42,.35-1.24,.35-2.47s-.11-2-.34-2.43c-.22-.43-.58-.64-1.07-.64s-.82,.21-1.05,.62c-.23,.41-.35,1.23-.35,2.46Zm-4.71,0c0-.91,.22-1.78,.66-2.63,.44-.84,1.12-1.55,2.04-2.13,.33-.2,.66-.36,1.01-.48,.35-.12,.73-.21,1.13-.27,.41-.07,.83-.1,1.28-.1,1.95,0,3.45,.57,4.52,1.71,.53,.56,.93,1.17,1.2,1.83,.27,.66,.41,1.35,.41,2.08,0,1.51-.55,2.83-1.65,3.95-1.1,1.12-2.59,1.68-4.47,1.68s-3.29-.53-4.42-1.58c-1.13-1.05-1.7-2.4-1.7-4.05Zm14.63,.27h-.91v-2.38h4.84v3.61c0,.61,.06,1.02,.17,1.23,.11,.21,.34,.32,.7,.32,.44,0,.84-.12,1.22-.35v-2.42h-1.04v-2.38h4.96v5.19h.91v2.38h-4.84v-.96c-1.04,.73-2.09,1.1-3.18,1.1-.78,0-1.44-.25-2-.74-.56-.49-.84-1.43-.84-2.79v-1.79Zm18.31,5.19h-6.1v-2.38h1.03v-2.81h-1.03v-2.38h4.7v1.9c.18-.47,.45-.88,.82-1.23,.35-.34,.71-.56,1.08-.66,.35-.1,.86-.15,1.54-.15v3.33c-.09,0-.2,0-.33,0-.8,0-1.4,.08-1.79,.24-.41,.17-.68,.39-.83,.66-.15,.28-.23,.65-.23,1.11h1.15v2.38Zm12.52-4.52v2.14h.94c.6,0,1.04-.08,1.3-.23,.26-.16,.39-.43,.39-.83,0-.37-.12-.64-.35-.82-.23-.17-.69-.26-1.36-.26h-.93Zm0-3.96v1.98h.93c.63,0,1.04-.09,1.24-.27,.19-.18,.28-.42,.28-.72,0-.25-.09-.48-.26-.69-.17-.2-.64-.3-1.41-.3h-.78Zm1,8.47h-6.14v-2.6h.94v-5.66h-.94v-2.6h6.63c1.3,0,2.31,.08,3.02,.23,.7,.16,1.25,.47,1.65,.93,.4,.47,.6,1.02,.6,1.65s-.19,1.1-.57,1.47c-.39,.37-.86,.63-1.42,.78,.76,.23,1.35,.58,1.76,1.06,.42,.49,.62,1.04,.62,1.65,0,.73-.23,1.35-.7,1.86-.47,.5-1.11,.83-1.93,.99-.81,.16-1.98,.24-3.53,.24Zm11.67-4.38h2.21c.01-.16,.02-.24,.02-.27,0-.41-.1-.75-.31-1.02-.21-.27-.48-.4-.83-.4s-.62,.15-.81,.44c-.19,.3-.28,.66-.28,1.09,0,.06,0,.11,0,.16Zm2.5,1.98l3.24,.4c-.15,.34-.35,.64-.61,.91-.26,.27-.58,.5-.95,.69-.75,.41-1.66,.61-2.71,.61-1.76,0-3.09-.37-3.98-1.1-.89-.73-1.33-1.68-1.33-2.86s.44-2.12,1.32-2.89c.87-.77,2.05-1.15,3.53-1.15s2.6,.36,3.5,1.09c.88,.72,1.36,1.82,1.41,3.3h-5.96c.02,1.23,.47,1.84,1.37,1.84,.54,0,.93-.28,1.17-.84Zm7.81,2.49h-2.43v-2.4h2.27c.58,.61,1.22,.92,1.91,.92s1.05-.14,1.05-.43c0-.15-.08-.26-.23-.34-.16-.08-.57-.21-1.24-.37-.54-.15-1.14-.31-1.79-.51-.57-.16-1.01-.36-1.34-.61-.34-.24-.56-.48-.68-.72-.12-.23-.19-.54-.19-.92,0-.84,.3-1.45,.89-1.85,.59-.39,1.33-.59,2.24-.59s1.72,.18,2.36,.53v-.39h2.4v2.2h-2.22c-.55-.53-1.21-.79-1.97-.79-.6,0-.9,.16-.9,.48,0,.15,.09,.25,.27,.3,.15,.05,.65,.16,1.5,.34,.96,.2,1.71,.41,2.26,.61,.54,.2,.94,.47,1.21,.8,.27,.33,.4,.74,.4,1.23,0,.87-.32,1.52-.98,1.94-.65,.41-1.44,.62-2.39,.62s-1.74-.17-2.4-.51v.47Zm13.51-2.86v2.33c-.25,.17-.62,.32-1.11,.45-.51,.14-1,.2-1.47,.2-.59,0-1.09-.1-1.51-.29-.43-.2-.76-.46-.98-.8-.12-.19-.21-.37-.27-.52-.06-.16-.1-.34-.12-.54-.04-.34-.05-1.01-.05-1.99v-1.27h-.97v-2.38h.97v-1.16l3.93-1.87v3.03h1.58v2.38h-1.58v1.47c0,.48,.04,.8,.13,.96,.08,.16,.26,.24,.53,.24,.25,0,.56-.08,.92-.24Zm11.18-5.71v2.04h.82c.57,0,.99-.07,1.25-.2,.25-.14,.37-.4,.37-.79,0-.25-.07-.47-.2-.65-.13-.17-.3-.28-.52-.33-.21-.05-.56-.07-1.06-.07h-.66Zm1.09,8.47h-6.34v-2.6h1.05v-5.66h-1.05v-2.6h6.66c1.53,0,2.65,.15,3.36,.44,.71,.3,1.23,.71,1.56,1.23s.5,1.09,.5,1.71c0,.76-.2,1.4-.59,1.9-.4,.51-.92,.88-1.57,1.11-.64,.22-1.63,.34-2.97,.34h-1.69v1.52h1.09v2.6Zm13.04,0h-6.1v-2.38h1.03v-2.81h-1.03v-2.38h4.7v1.9c.18-.47,.45-.88,.82-1.23,.35-.34,.71-.56,1.08-.66,.35-.1,.86-.15,1.54-.15v3.33c-.09,0-.2,0-.33,0-.8,0-1.4,.08-1.79,.24-.41,.17-.68,.39-.83,.66-.15,.28-.23,.65-.24,1.11h1.15v2.38Zm7.02-3.81c0,1.21,.43,1.81,1.3,1.81,.91,0,1.37-.61,1.37-1.83,0-.56-.11-.99-.33-1.3-.23-.31-.55-.46-.97-.46s-.74,.15-.99,.45c-.25,.3-.38,.74-.38,1.32Zm-3.97-.02c0-1.11,.47-2.05,1.4-2.82,.94-.76,2.2-1.15,3.79-1.15s2.91,.37,3.91,1.11c1,.74,1.5,1.7,1.5,2.89s-.48,2.1-1.43,2.86c-.96,.76-2.22,1.15-3.79,1.15-1.69,0-3.02-.38-3.96-1.15-.95-.76-1.42-1.72-1.42-2.9Zm18.99,0c0-.47-.11-.87-.33-1.19-.22-.31-.54-.47-.98-.47-.89,0-1.33,.57-1.33,1.72,0,.47,.11,.86,.33,1.17,.21,.31,.54,.47,.97,.47,.4,0,.72-.14,.97-.41,.25-.28,.37-.71,.37-1.3Zm4.89,1.44v2.38h-4.91v-.51c-.73,.43-1.57,.65-2.53,.65-1.07,0-2.01-.32-2.83-.98-.82-.65-1.23-1.58-1.23-2.79,0-1.31,.38-2.31,1.14-3.03,.76-.7,1.78-1.05,3.05-1.05,.94,0,1.74,.21,2.4,.62v-1.39h-.97v-2.38h4.89v8.47h.99Zm2.16-2.81h-.91v-2.38h4.84v3.61c0,.61,.06,1.02,.17,1.23,.11,.21,.34,.32,.7,.32,.44,0,.84-.12,1.22-.35v-2.42h-1.04v-2.38h4.96v5.19h.91v2.38h-4.84v-.96c-1.03,.73-2.1,1.1-3.18,1.1-.78,0-1.44-.25-2-.74-.56-.49-.84-1.43-.84-2.79v-1.79Zm19.22,2.08l2.93,.66c-.25,.84-.77,1.5-1.58,1.97-.81,.47-1.83,.7-3.02,.7-1.59,0-2.85-.36-3.76-1.08-.92-.72-1.37-1.68-1.37-2.89s.43-2.11,1.28-2.86c.84-.74,1.91-1.11,3.19-1.11,1.08,0,1.92,.22,2.51,.65v-.51h2.39v3.23h-2.39c-.3-.86-.8-1.3-1.51-1.3-.48,0-.85,.18-1.11,.55-.26,.38-.39,.84-.39,1.38,0,.59,.14,1.05,.42,1.39,.27,.34,.64,.51,1.08,.51,.73,0,1.18-.43,1.34-1.3Zm10.52,.34v2.33c-.25,.17-.62,.32-1.11,.45-.51,.14-1,.2-1.47,.2-.59,0-1.09-.1-1.51-.29-.43-.2-.76-.46-.97-.8-.12-.19-.21-.37-.27-.52-.06-.16-.1-.34-.13-.54-.03-.34-.05-1.01-.05-1.99v-1.27h-.97v-2.38h.97v-1.16l3.93-1.87v3.03h1.58v2.38h-1.58v1.47c0,.48,.04,.8,.13,.96,.08,.16,.26,.24,.53,.24,.25,0,.56-.08,.92-.24Zm4.28,2.86h-2.43v-2.4h2.27c.58,.61,1.22,.92,1.91,.92s1.05-.14,1.05-.43c0-.15-.08-.26-.23-.34-.16-.08-.57-.21-1.24-.37-.54-.15-1.14-.31-1.79-.51-.57-.16-1.02-.36-1.34-.61-.34-.24-.56-.48-.68-.72-.13-.23-.19-.54-.19-.92,0-.84,.3-1.45,.89-1.85,.59-.39,1.34-.59,2.24-.59s1.72,.18,2.36,.53v-.39h2.4v2.2h-2.22c-.55-.53-1.21-.79-1.97-.79-.6,0-.89,.16-.89,.48,0,.15,.09,.25,.26,.3,.15,.05,.65,.16,1.5,.34,.96,.2,1.72,.41,2.26,.61,.54,.2,.94,.47,1.21,.8,.26,.33,.4,.74,.4,1.23,0,.87-.32,1.52-.97,1.94-.65,.41-1.44,.62-2.39,.62s-1.74-.17-2.39-.51v.47Z"/><path class="ac" d="M507.41,422.76c0,1.21,.12,2.02,.35,2.44,.22,.43,.57,.64,1.05,.64s.83-.21,1.06-.62c.23-.42,.35-1.24,.35-2.47s-.11-2-.34-2.43c-.22-.43-.58-.64-1.07-.64s-.82,.21-1.05,.62c-.23,.41-.35,1.23-.35,2.46Zm-4.71,0c0-.91,.22-1.78,.66-2.63,.44-.84,1.12-1.55,2.04-2.13,.33-.2,.66-.36,1.01-.48,.35-.12,.73-.21,1.13-.27,.41-.07,.83-.1,1.28-.1,1.95,0,3.45,.57,4.52,1.71,.53,.56,.93,1.17,1.2,1.83,.27,.66,.41,1.35,.41,2.08,0,1.51-.55,2.83-1.65,3.95-1.1,1.12-2.59,1.68-4.47,1.68s-3.29-.53-4.42-1.58c-1.13-1.05-1.7-2.4-1.7-4.05Zm14.63,.27h-.91v-2.38h4.84v3.61c0,.61,.06,1.02,.17,1.23,.11,.21,.34,.32,.7,.32,.44,0,.84-.12,1.22-.35v-2.42h-1.04v-2.38h4.96v5.19h.91v2.38h-4.84v-.96c-1.04,.73-2.09,1.1-3.18,1.1-.78,0-1.44-.25-2-.74-.56-.49-.84-1.43-.84-2.79v-1.79Zm18.31,5.19h-6.1v-2.38h1.03v-2.81h-1.03v-2.38h4.7v1.9c.18-.47,.45-.88,.82-1.23,.35-.34,.71-.56,1.08-.66,.35-.1,.86-.15,1.54-.15v3.33c-.09,0-.2,0-.33,0-.8,0-1.4,.08-1.79,.24-.41,.17-.68,.39-.83,.66-.15,.28-.23,.65-.23,1.11h1.15v2.38Zm12.52-4.52v2.14h.94c.6,0,1.04-.08,1.3-.23,.26-.16,.39-.43,.39-.83,0-.37-.12-.64-.35-.82-.23-.17-.69-.26-1.36-.26h-.93Zm0-3.96v1.98h.93c.63,0,1.04-.09,1.24-.27,.19-.18,.28-.42,.28-.72,0-.25-.09-.48-.26-.69-.17-.2-.64-.3-1.41-.3h-.78Zm1,8.47h-6.14v-2.6h.94v-5.66h-.94v-2.6h6.63c1.3,0,2.31,.08,3.02,.23,.7,.16,1.25,.47,1.65,.93,.4,.47,.6,1.02,.6,1.65s-.19,1.1-.57,1.47c-.39,.37-.86,.63-1.42,.78,.76,.23,1.35,.58,1.76,1.06,.42,.49,.62,1.04,.62,1.65,0,.73-.23,1.35-.7,1.86-.47,.5-1.11,.83-1.93,.99-.81,.16-1.98,.24-3.53,.24Zm11.67-4.38h2.21c.01-.16,.02-.24,.02-.27,0-.41-.1-.75-.31-1.02-.21-.27-.48-.4-.83-.4s-.62,.15-.81,.44c-.19,.3-.28,.66-.28,1.09,0,.06,0,.11,0,.16Zm2.5,1.98l3.24,.4c-.15,.34-.35,.64-.61,.91-.26,.27-.58,.5-.95,.69-.75,.41-1.66,.61-2.71,.61-1.76,0-3.09-.37-3.98-1.1-.89-.73-1.33-1.68-1.33-2.86s.44-2.12,1.32-2.89c.87-.77,2.05-1.15,3.53-1.15s2.6,.36,3.5,1.09c.88,.72,1.36,1.82,1.41,3.3h-5.96c.02,1.23,.47,1.84,1.37,1.84,.54,0,.93-.28,1.17-.84Zm7.81,2.49h-2.43v-2.4h2.27c.58,.61,1.22,.92,1.91,.92s1.05-.14,1.05-.43c0-.15-.08-.26-.23-.34-.16-.08-.57-.21-1.24-.37-.54-.15-1.14-.31-1.79-.51-.57-.16-1.01-.36-1.34-.61-.34-.24-.56-.48-.68-.72-.12-.23-.19-.54-.19-.92,0-.84,.3-1.45,.89-1.85,.59-.39,1.33-.59,2.24-.59s1.72,.18,2.36,.53v-.39h2.4v2.2h-2.22c-.55-.53-1.21-.79-1.97-.79-.6,0-.9,.16-.9,.48,0,.15,.09,.25,.27,.3,.15,.05,.65,.16,1.5,.34,.96,.2,1.71,.41,2.26,.61,.54,.2,.94,.47,1.21,.8,.27,.33,.4,.74,.4,1.23,0,.87-.32,1.52-.98,1.94-.65,.41-1.44,.62-2.39,.62s-1.74-.17-2.4-.51v.47Zm13.51-2.86v2.33c-.25,.17-.62,.32-1.11,.45-.51,.14-1,.2-1.47,.2-.59,0-1.09-.1-1.51-.29-.43-.2-.76-.46-.98-.8-.12-.19-.21-.37-.27-.52-.06-.16-.1-.34-.12-.54-.04-.34-.05-1.01-.05-1.99v-1.27h-.97v-2.38h.97v-1.16l3.93-1.87v3.03h1.58v2.38h-1.58v1.47c0,.48,.04,.8,.13,.96,.08,.16,.26,.24,.53,.24,.25,0,.56-.08,.92-.24Zm11.18-5.71v2.04h.82c.57,0,.99-.07,1.25-.2,.25-.14,.37-.4,.37-.79,0-.25-.07-.47-.2-.65-.13-.17-.3-.28-.52-.33-.21-.05-.56-.07-1.06-.07h-.66Zm1.09,8.47h-6.34v-2.6h1.05v-5.66h-1.05v-2.6h6.66c1.53,0,2.65,.15,3.36,.44,.71,.3,1.23,.71,1.56,1.23s.5,1.09,.5,1.71c0,.76-.2,1.4-.59,1.9-.4,.51-.92,.88-1.57,1.11-.64,.22-1.63,.34-2.97,.34h-1.69v1.52h1.09v2.6Zm13.04,0h-6.1v-2.38h1.03v-2.81h-1.03v-2.38h4.7v1.9c.18-.47,.45-.88,.82-1.23,.35-.34,.71-.56,1.08-.66,.35-.1,.86-.15,1.54-.15v3.33c-.09,0-.2,0-.33,0-.8,0-1.4,.08-1.79,.24-.41,.17-.68,.39-.83,.66-.15,.28-.23,.65-.24,1.11h1.15v2.38Zm7.02-3.81c0,1.21,.43,1.81,1.3,1.81,.91,0,1.37-.61,1.37-1.83,0-.56-.11-.99-.33-1.3-.23-.31-.55-.46-.97-.46s-.74,.15-.99,.45c-.25,.3-.38,.74-.38,1.32Zm-3.97-.02c0-1.11,.47-2.05,1.4-2.82,.94-.76,2.2-1.15,3.79-1.15s2.91,.37,3.91,1.11c1,.74,1.5,1.7,1.5,2.89s-.48,2.1-1.43,2.86c-.96,.76-2.22,1.15-3.79,1.15-1.69,0-3.02-.38-3.96-1.15-.95-.76-1.42-1.72-1.42-2.9Zm18.99,0c0-.47-.11-.87-.33-1.19-.22-.31-.54-.47-.98-.47-.89,0-1.33,.57-1.33,1.72,0,.47,.11,.86,.33,1.17,.21,.31,.54,.47,.97,.47,.4,0,.72-.14,.97-.41,.25-.28,.37-.71,.37-1.3Zm4.89,1.44v2.38h-4.91v-.51c-.73,.43-1.57,.65-2.53,.65-1.07,0-2.01-.32-2.83-.98-.82-.65-1.23-1.58-1.23-2.79,0-1.31,.38-2.31,1.14-3.03,.76-.7,1.78-1.05,3.05-1.05,.94,0,1.74,.21,2.4,.62v-1.39h-.97v-2.38h4.89v8.47h.99Zm2.16-2.81h-.91v-2.38h4.84v3.61c0,.61,.06,1.02,.17,1.23,.11,.21,.34,.32,.7,.32,.44,0,.84-.12,1.22-.35v-2.42h-1.04v-2.38h4.96v5.19h.91v2.38h-4.84v-.96c-1.03,.73-2.1,1.1-3.18,1.1-.78,0-1.44-.25-2-.74-.56-.49-.84-1.43-.84-2.79v-1.79Zm19.22,2.08l2.93,.66c-.25,.84-.77,1.5-1.58,1.97-.81,.47-1.83,.7-3.02,.7-1.59,0-2.85-.36-3.76-1.08-.92-.72-1.37-1.68-1.37-2.89s.43-2.11,1.28-2.86c.84-.74,1.91-1.11,3.19-1.11,1.08,0,1.92,.22,2.51,.65v-.51h2.39v3.23h-2.39c-.3-.86-.8-1.3-1.51-1.3-.48,0-.85,.18-1.11,.55-.26,.38-.39,.84-.39,1.38,0,.59,.14,1.05,.42,1.39,.27,.34,.64,.51,1.08,.51,.73,0,1.18-.43,1.34-1.3Zm10.52,.34v2.33c-.25,.17-.62,.32-1.11,.45-.51,.14-1,.2-1.47,.2-.59,0-1.09-.1-1.51-.29-.43-.2-.76-.46-.97-.8-.12-.19-.21-.37-.27-.52-.06-.16-.1-.34-.13-.54-.03-.34-.05-1.01-.05-1.99v-1.27h-.97v-2.38h.97v-1.16l3.93-1.87v3.03h1.58v2.38h-1.58v1.47c0,.48,.04,.8,.13,.96,.08,.16,.26,.24,.53,.24,.25,0,.56-.08,.92-.24Zm4.28,2.86h-2.43v-2.4h2.27c.58,.61,1.22,.92,1.91,.92s1.05-.14,1.05-.43c0-.15-.08-.26-.23-.34-.16-.08-.57-.21-1.24-.37-.54-.15-1.14-.31-1.79-.51-.57-.16-1.02-.36-1.34-.61-.34-.24-.56-.48-.68-.72-.13-.23-.19-.54-.19-.92,0-.84,.3-1.45,.89-1.85,.59-.39,1.34-.59,2.24-.59s1.72,.18,2.36,.53v-.39h2.4v2.2h-2.22c-.55-.53-1.21-.79-1.97-.79-.6,0-.89,.16-.89,.48,0,.15,.09,.25,.26,.3,.15,.05,.65,.16,1.5,.34,.96,.2,1.72,.41,2.26,.61,.54,.2,.94,.47,1.21,.8,.26,.33,.4,.74,.4,1.23,0,.87-.32,1.52-.97,1.94-.65,.41-1.44,.62-2.39,.62s-1.74-.17-2.39-.51v.47Z"/><rect class="x" x="368.35" y="562.15" width="25.49" height="9.89"/><path class="ab" d="M375.73,567.33v.61h.27c.17,0,.3-.02,.37-.06,.07-.05,.11-.13,.11-.24s-.03-.19-.1-.24c-.07-.05-.2-.07-.39-.07h-.27Zm0-1.13v.56h.27c.18,0,.3-.02,.35-.08,.05-.05,.08-.12,.08-.21,0-.07-.02-.14-.07-.19-.05-.06-.18-.09-.4-.09h-.22Zm.29,2.42h-1.75v-.74h.27v-1.62h-.27v-.74h1.9c.37,0,.66,.02,.86,.06,.2,.05,.36,.13,.47,.27,.11,.13,.17,.29,.17,.47s-.05,.32-.16,.42c-.11,.11-.25,.18-.41,.22,.22,.06,.39,.16,.5,.3,.12,.14,.18,.3,.18,.47,0,.21-.07,.38-.2,.53-.13,.14-.32,.24-.55,.29-.23,.05-.57,.07-1.01,.07Zm5.2,0h-2.96v-.74h.24v-1.62h-.25v-.74h2.96v.99h-.81v-.25h-.7v.48h.61v.63h-.61v.51h.7v-.25h.81v.99Zm1.26,0h-.7v-.99h.7c.08,.27,.24,.4,.47,.4,.17,0,.25-.06,.25-.2,0-.07-.03-.13-.09-.18-.06-.05-.19-.12-.39-.21-.25-.11-.44-.21-.56-.3-.11-.08-.21-.18-.29-.32-.08-.13-.12-.28-.12-.44,0-.29,.09-.51,.28-.68,.19-.16,.41-.24,.69-.24s.5,.08,.69,.23v-.19h.7v.88h-.69c-.08-.24-.23-.37-.45-.37-.15,0-.23,.06-.23,.19,0,.06,.02,.11,.06,.14,.04,.03,.18,.1,.4,.22,.3,.15,.51,.26,.61,.33,.05,.03,.1,.08,.16,.14,.05,.06,.1,.13,.14,.19,.08,.14,.12,.3,.12,.47,0,.26-.1,.48-.29,.66-.19,.19-.44,.28-.73,.28-.27,0-.52-.08-.74-.24v.2Zm4.63,0h-1.74v-.74h.27v-1.62h-.36v.56h-.58v-1.31h3.07v1.31h-.58v-.56h-.35v1.62h.27v.74Z"/><rect class="ac" x="396.89" y="562.15" width="23.97" height="9.89"/><path class="ab" d="M404.02,568.62h-1.27v-.74h.27v-1.62h-.27v-.74h1.47l1.13,1.62v-.88h-.25v-.74h1.25v.74h-.27v2.4h-1.02l-1.31-1.88v1.09h.27v.74Zm5.74,0h-2.96v-.74h.24v-1.62h-.25v-.74h2.96v.99h-.81v-.25h-.7v.48h.61v.63h-.61v.51h.7v-.25h.81v.99Zm2.45,.03h-.98l-.87-2.39h-.21v-.74h1.61v.74h-.23l.37,1.34,.46-1.34h-.23v-.74h1.35v.74h-.23l.47,1.34,.37-1.34h-.22v-.74h1.25v.74h-.21l-.88,2.39h-.96l-.42-1.19-.42,1.19Z"/><rect class="af" x="368.35" y="451.81" width="102.73" height="102.73"/><rect class="af" x="523.59" y="114.69" width="17.88" height="17.88"/><path class="ac" d="M554.07,120.21v2.46h.56c.73,0,1.23-.02,1.49-.07,.28-.04,.51-.17,.71-.37,.19-.19,.29-.46,.29-.79s-.1-.6-.29-.8c-.19-.2-.44-.33-.73-.37-.28-.04-.81-.07-1.56-.07h-.46Zm.98,10.09h-7.02v-3.09h1.05v-6.73h-1.05v-3.09h7.02c.63,0,1.22,.01,1.76,.04,.54,.02,1,.05,1.38,.09,.38,.04,.74,.09,1.06,.16,.9,.19,1.64,.61,2.2,1.25,.57,.66,.85,1.43,.85,2.32,0,.67-.17,1.28-.52,1.82-.35,.54-.8,.94-1.37,1.19l1.78,2.95h.93v3.09h-4.65l-2.81-5.28h-1.59v2.18h.98v3.09Zm21.97,0h-12.33v-3.09h1v-6.73h-1.02v-3.09h12.35v4.13h-3.39v-1.04h-2.94v1.99h2.55v2.63h-2.55v2.12h2.94v-1.04h3.39v4.13Zm8.44-9.83v6.73h.47c1.18,0,1.94-.31,2.29-.94,.35-.63,.52-1.41,.52-2.36,0-.57-.07-1.13-.22-1.69-.15-.56-.43-.99-.82-1.29-.38-.3-1.07-.46-2.06-.46h-.19Zm0,9.83h-6.01v-3.09h1.01v-6.73h-1.01v-3.09h6.19c1.41,0,2.56,.09,3.46,.26,.9,.17,1.74,.53,2.54,1.07,.79,.55,1.41,1.28,1.86,2.21,.22,.45,.39,.92,.51,1.43,.12,.51,.18,1.04,.18,1.6,0,1.12-.24,2.14-.72,3.07-.47,.92-1.07,1.62-1.79,2.11-.71,.49-1.48,.81-2.32,.96-.84,.15-2.13,.22-3.88,.22Z"/><path class="ac" d="M605.82,130.29h-6.8v-3.09h.98v-6.73h-.99v-3.09h6.82v3.09h-.83v1.97h2.99v-1.97h-.84v-3.09h6.81v3.09h-.97v6.73h.97v3.09h-6.81v-3.09h.84v-2.12h-2.99v2.12h.83v3.09Zm22.56,0h-12.33v-3.09h1v-6.73h-1.02v-3.09h12.35v4.13h-3.39v-1.04h-2.94v1.99h2.56v2.63h-2.56v2.12h2.94v-1.04h3.39v4.13Zm8.01-9.64l-1.22,3.58h2.31l-1.1-3.58Zm-1.22,9.64h-5.12v-3.09h.99l2.42-6.73h-1.04v-3.09h9.29v3.09h-1.04l2.47,6.73h.95v3.09h-6.74v-2.83h1.13l-.49-1.63h-3.31l-.57,1.63h1.06v2.83Zm22.48,0h-12.3v-3.09h1.16v-6.73h-1.16v-3.09h7.39v3.09h-1.23v6.73h3.06v-2.07h3.08v5.16Z"/><path class="ac" d="M267.49,123.93h-2.02v2.18h-1.16v-5.31h1.16v2.12h2.02v-2.12h1.16v5.31h-1.16v-2.18Zm4.04,2.27c-.29,0-.56-.05-.79-.14-.23-.1-.42-.24-.59-.42-.16-.18-.28-.4-.37-.66-.09-.26-.13-.55-.13-.87s.04-.61,.13-.87c.09-.26,.21-.48,.37-.65,.16-.18,.36-.32,.59-.42,.23-.1,.5-.14,.79-.14s.56,.05,.78,.14c.23,.1,.43,.24,.59,.42,.16,.18,.29,.4,.37,.65,.09,.26,.13,.55,.13,.87s-.04,.61-.13,.87c-.09,.26-.21,.48-.37,.66-.16,.18-.35,.32-.59,.42-.23,.1-.49,.14-.78,.14Zm0-.89c.22,0,.4-.07,.52-.21s.18-.33,.18-.59v-.81c0-.25-.06-.45-.18-.59s-.29-.21-.52-.21-.4,.07-.52,.21-.18,.33-.18,.59v.81c0,.25,.06,.45,.18,.59s.29,.21,.52,.21Zm2.83,.8v-4h1.13v.68h.05c.07-.21,.19-.39,.37-.54,.17-.15,.41-.23,.71-.23,.27,0,.51,.07,.7,.21,.19,.14,.33,.34,.42,.6h.02c.04-.11,.09-.22,.16-.31,.08-.1,.17-.19,.27-.26,.11-.07,.23-.13,.36-.17,.13-.05,.27-.07,.43-.07,.39,0,.68,.14,.88,.41,.21,.27,.31,.66,.31,1.17v2.5h-1.13v-2.41c0-.51-.18-.76-.55-.76-.17,0-.32,.05-.46,.14s-.21,.24-.21,.44v2.59h-1.13v-2.41c0-.51-.18-.76-.55-.76-.08,0-.16,.01-.24,.04-.08,.02-.15,.06-.21,.11-.06,.05-.11,.11-.15,.19-.04,.07-.05,.15-.05,.25v2.59h-1.13Zm8.62,.09c-.3,0-.58-.05-.81-.14-.24-.1-.44-.24-.61-.42-.16-.18-.29-.4-.37-.66-.08-.26-.12-.55-.12-.87s.04-.6,.12-.85c.08-.26,.2-.48,.36-.66,.16-.18,.36-.32,.59-.42,.23-.1,.5-.15,.8-.15,.33,0,.61,.06,.84,.17,.24,.11,.43,.26,.58,.45,.15,.19,.26,.41,.33,.65,.07,.24,.11,.5,.11,.77v.33h-2.56v.06c0,.26,.07,.47,.21,.63,.14,.15,.37,.23,.67,.23,.23,0,.42-.05,.57-.14,.15-.1,.28-.21,.41-.34l.56,.7c-.18,.21-.41,.37-.7,.49-.28,.12-.61,.18-.97,.18Zm-.02-3.35c-.23,0-.41,.08-.54,.23-.13,.15-.19,.35-.19,.59v.06h1.4v-.07c0-.24-.06-.44-.17-.59-.11-.15-.27-.23-.5-.23Z"/><path class="ac" d="M315.29,126.11v-5.31h2.51c.25,0,.47,.04,.67,.13,.2,.08,.37,.2,.5,.34,.14,.15,.25,.33,.33,.54,.08,.21,.11,.44,.11,.68s-.04,.48-.11,.69-.19,.39-.33,.53c-.14,.15-.3,.26-.5,.35-.2,.08-.42,.12-.67,.12h-1.35v1.92h-1.16Zm1.16-2.92h1.22c.17,0,.31-.04,.4-.13,.1-.09,.15-.22,.15-.4v-.33c0-.17-.05-.3-.15-.39-.1-.09-.23-.14-.4-.14h-1.22v1.38Zm3.85,2.92v-4h1.13v.87h.04c.02-.11,.06-.22,.11-.32,.05-.11,.12-.2,.2-.28,.09-.08,.19-.14,.3-.19,.12-.05,.25-.08,.41-.08h.2v1.05h-.28c-.33,0-.58,.04-.74,.13-.16,.09-.24,.25-.24,.48v2.34h-1.13Zm4.81,.09c-.29,0-.56-.05-.79-.14-.23-.1-.42-.24-.59-.42-.16-.18-.28-.4-.37-.66-.09-.26-.13-.55-.13-.87s.04-.61,.13-.87c.09-.26,.21-.48,.37-.65,.16-.18,.36-.32,.59-.42,.23-.1,.5-.14,.79-.14s.56,.05,.78,.14c.23,.1,.43,.24,.59,.42,.16,.18,.29,.4,.37,.65,.09,.26,.13,.55,.13,.87s-.04,.61-.13,.87c-.09,.26-.21,.48-.37,.66-.16,.18-.35,.32-.59,.42-.23,.1-.49,.14-.78,.14Zm0-.89c.22,0,.4-.07,.52-.21,.12-.14,.18-.33,.18-.59v-.81c0-.25-.06-.45-.18-.59-.12-.14-.29-.21-.52-.21s-.4,.07-.52,.21c-.12,.14-.18,.33-.18,.59v.81c0,.25,.06,.45,.18,.59,.12,.14,.29,.21,.52,.21Zm5.28,.13h-.04c-.03,.11-.08,.21-.14,.3-.07,.09-.15,.17-.24,.24-.09,.07-.2,.12-.32,.15-.12,.04-.24,.06-.37,.06-.51,0-.89-.18-1.15-.53-.26-.36-.39-.88-.39-1.56s.13-1.2,.39-1.55c.26-.35,.64-.53,1.15-.53,.26,0,.49,.07,.68,.21,.2,.14,.33,.32,.39,.55h.04v-2.31h1.13v5.63h-1.13v-.67Zm-.74-.15c.21,0,.39-.05,.53-.15,.14-.11,.21-.25,.21-.43v-1.18c0-.18-.07-.32-.21-.43-.14-.11-.31-.16-.53-.16s-.39,.08-.53,.23c-.14,.15-.21,.35-.21,.6v.69c0,.25,.07,.46,.21,.61,.14,.15,.32,.22,.53,.22Zm5.43,.15h-.04c-.04,.1-.08,.2-.14,.29-.06,.09-.13,.17-.22,.24-.09,.07-.2,.13-.33,.17-.12,.04-.26,.06-.43,.06-.41,0-.72-.13-.94-.4-.21-.27-.31-.66-.31-1.17v-2.51h1.13v2.41c0,.24,.04,.43,.13,.56s.23,.2,.44,.2c.09,0,.17-.01,.26-.04s.16-.06,.23-.11c.07-.05,.12-.11,.16-.18,.04-.07,.06-.15,.06-.25v-2.59h1.13v4h-1.13v-.67Zm3.94,.76c-.3,0-.57-.05-.8-.14-.23-.1-.43-.24-.59-.42-.16-.18-.28-.4-.36-.66-.08-.26-.12-.55-.12-.87s.04-.61,.12-.86c.08-.26,.2-.48,.36-.66,.16-.18,.35-.32,.59-.42,.23-.1,.5-.14,.8-.14,.41,0,.74,.09,1.01,.27,.27,.18,.47,.44,.59,.77l-.91,.4c-.04-.15-.11-.28-.22-.39-.11-.11-.27-.16-.46-.16-.23,0-.4,.08-.52,.23-.12,.15-.18,.35-.18,.6v.75c0,.25,.06,.45,.18,.6,.12,.15,.29,.22,.52,.22,.2,0,.36-.05,.48-.16,.12-.11,.21-.26,.27-.43l.88,.38c-.13,.38-.34,.66-.62,.84-.27,.18-.61,.27-1,.27Zm3.87-.09c-.39,0-.69-.1-.89-.3-.2-.2-.3-.49-.3-.87v-1.96h-.56v-.88h.28c.15,0,.26-.04,.31-.11,.06-.08,.08-.18,.08-.32v-.65h1.01v1.08h.79v.88h-.79v2.24h.73v.88h-.67Zm3.02,.09c-.39,0-.71-.06-.97-.18-.26-.13-.5-.3-.71-.53l.66-.67c.14,.16,.3,.28,.47,.37,.17,.09,.37,.14,.59,.14s.38-.03,.46-.1c.09-.07,.13-.16,.13-.28,0-.19-.13-.3-.4-.33l-.43-.05c-.9-.11-1.35-.52-1.35-1.23,0-.19,.04-.37,.11-.53,.08-.16,.18-.3,.31-.41,.14-.12,.3-.21,.49-.27,.19-.07,.41-.1,.65-.1,.21,0,.39,.02,.55,.05,.16,.03,.3,.07,.43,.12,.13,.05,.24,.12,.34,.2,.11,.08,.21,.16,.31,.26l-.65,.66c-.13-.13-.27-.23-.43-.3-.16-.08-.32-.11-.49-.11-.19,0-.33,.03-.41,.09-.08,.06-.12,.14-.12,.24s.03,.19,.08,.25c.06,.06,.17,.1,.33,.12l.45,.06c.88,.12,1.32,.52,1.32,1.2,0,.19-.04,.37-.12,.53-.08,.16-.2,.3-.35,.43-.15,.12-.33,.21-.54,.27-.21,.07-.44,.1-.7,.1Z"/><path class="ac" d="M382.26,126.11v-5.31h3.61v1.03h-2.46v1.09h2.11v1.02h-2.11v1.15h2.46v1.03h-3.61Zm5.57,0l-1.31-4h1.11l.49,1.61,.37,1.45h.06l.37-1.45,.48-1.61h1.07l-1.31,4h-1.34Zm5,.09c-.3,0-.58-.05-.81-.14-.24-.1-.44-.24-.61-.42-.16-.18-.29-.4-.37-.66-.08-.26-.12-.55-.12-.87s.04-.6,.12-.85c.08-.26,.2-.48,.36-.66,.16-.18,.36-.32,.59-.42,.23-.1,.5-.15,.8-.15,.33,0,.61,.06,.84,.17,.24,.11,.43,.26,.58,.45,.15,.19,.26,.41,.33,.65,.07,.24,.11,.5,.11,.77v.33h-2.56v.06c0,.26,.07,.47,.21,.63,.14,.15,.37,.23,.67,.23,.23,0,.42-.05,.57-.14,.15-.1,.28-.21,.41-.34l.56,.7c-.18,.21-.41,.37-.7,.49-.28,.12-.61,.18-.97,.18Zm-.02-3.35c-.23,0-.41,.08-.54,.23-.13,.15-.19,.35-.19,.59v.06h1.4v-.07c0-.24-.06-.44-.17-.59-.11-.15-.27-.23-.5-.23Zm2.78,3.26v-4h1.13v.68h.05c.07-.21,.2-.39,.37-.54,.18-.15,.42-.23,.74-.23,.41,0,.72,.14,.93,.41,.21,.27,.32,.66,.32,1.17v2.5h-1.13v-2.41c0-.26-.04-.45-.12-.57-.08-.13-.23-.19-.43-.19-.09,0-.18,.01-.27,.04-.09,.02-.16,.06-.24,.11-.07,.05-.12,.11-.16,.19-.04,.07-.06,.15-.06,.25v2.59h-1.13Zm6.09,0c-.39,0-.69-.1-.89-.3-.2-.2-.3-.49-.3-.87v-1.96h-.56v-.88h.28c.15,0,.26-.04,.31-.11,.06-.08,.08-.18,.08-.32v-.65h1.01v1.08h.79v.88h-.79v2.24h.73v.88h-.67Z"/><rect class="ac" x="264.1" y="131.06" width="20.55" height=".38"/><path class="ab" d="M540.58,86.02v5.33h-.61v-5.33h.61Zm-1.97,.74h-1.64v-.51h1.64v.51Zm1,3.1l.06,.49c-.45,.07-1,.12-1.64,.16-.64,.04-1.3,.05-1.98,.05l-.05-.52c.56,0,1.05,0,1.47-.02v-.63c-.32-.04-.57-.14-.75-.3-.18-.17-.27-.36-.27-.58,0-.34,.17-.58,.51-.72v-.04h-.87v-.49h3.34v.49h-.84v.04c.33,.14,.5,.38,.5,.72,0,.23-.09,.42-.27,.58-.18,.16-.43,.26-.75,.3v.6c.64-.03,1.15-.08,1.54-.13Zm-1.9-.95h.13c.2,0,.36-.05,.49-.15,.13-.1,.19-.24,.19-.41s-.06-.3-.19-.4c-.13-.1-.29-.15-.49-.15h-.13c-.2,0-.37,.05-.5,.15-.13,.1-.19,.23-.19,.4s.06,.31,.19,.41c.13,.1,.3,.15,.5,.15Zm7.86,.31v-3.2h.61v4.3h-.61v-.65h-1.24v-.45h1.24Zm-3.68-2.1c0-.31,.13-.55,.38-.73,.26-.18,.6-.27,1.02-.27s.75,.09,1,.27c.26,.18,.39,.42,.39,.73s-.13,.56-.39,.74c-.26,.18-.59,.27-1,.27s-.76-.09-1.02-.27c-.26-.18-.38-.43-.38-.74Zm.61,.04c0,.16,.07,.28,.21,.38,.14,.09,.33,.14,.57,.14s.42-.05,.56-.14c.14-.09,.21-.22,.21-.38v-.07c0-.16-.07-.28-.21-.38-.14-.09-.32-.14-.56-.14s-.43,.05-.57,.14c-.14,.09-.21,.22-.21,.38v.07Zm.46,1.81c-.4,.02-.86,.02-1.37,.02l-.05-.49c.69,0,1.35-.02,1.98-.05,.64-.03,1.18-.08,1.61-.14l.05,.46c-.44,.07-.99,.12-1.63,.16v.93h-.6v-.89Zm3.33,2v.5h-3.24c-.13,0-.23-.03-.3-.1-.07-.07-.1-.17-.1-.3v-1.01h.61v.91h3.02Zm5.94-2.4h-.85v2.79h-.61v-5.33h.61v2.02h.85v.52Zm-4.92-2.12h2.45v.88c0,.45-.07,.84-.21,1.16-.14,.32-.37,.61-.69,.88-.32,.27-.77,.57-1.35,.89l-.37-.47c.54-.28,.94-.53,1.22-.76,.28-.23,.48-.48,.59-.74,.11-.26,.17-.59,.17-.97v-.36h-1.82v-.52Zm9.93-.43v2.98h-.61v-2.98h.61Zm-4.46,1.5c0-.27,.06-.5,.18-.7,.12-.2,.29-.36,.51-.46,.22-.11,.47-.16,.74-.16s.52,.05,.74,.16c.22,.11,.39,.26,.51,.46,.12,.2,.18,.43,.18,.7s-.06,.5-.18,.7c-.12,.2-.29,.35-.51,.46-.21,.11-.46,.16-.74,.16s-.52-.05-.74-.16c-.21-.11-.38-.26-.51-.46-.12-.2-.18-.44-.18-.7Zm2.21,.1v-.21c0-.22-.07-.39-.21-.52-.14-.13-.33-.19-.57-.19s-.42,.06-.57,.19c-.14,.13-.21,.3-.21,.52v.21c0,.22,.07,.39,.21,.52,.14,.13,.33,.19,.57,.19s.42-.06,.57-.19c.14-.13,.21-.3,.21-.52Zm-1.18,3.54v-1.86h.61v.6h2.21v-.6h.61v2.26h-3.03c-.13,0-.23-.03-.3-.1-.07-.07-.1-.17-.1-.3Zm2.82-.74h-2.21v.62h2.21v-.62Zm7.7-4.41v5.33h-.62v-5.33h.62Zm-2.51,2.18c.06,0,.11,.03,.16,.09l1.11,1.42-.47,.4-1.12-1.48s-.04-.04-.06-.04-.04,.01-.05,.04c-.11,.23-.25,.46-.43,.7-.17,.24-.41,.53-.7,.87l-.47-.4c.34-.37,.6-.7,.79-.99,.19-.28,.33-.57,.41-.85,.09-.29,.13-.61,.13-.97v-.62h.62v.61c0,.5-.08,.95-.23,1.35l.03,.02,.12-.09c.06-.04,.11-.07,.17-.07Zm9.31,.28h-3.57v-2.29h3.57v2.29Zm-.61-1.78h-2.34v1.27h2.34v-1.27Zm1.33,2.96h-2.19v1.91h-.61v-1.91h-2.19v-.52h4.99v.52Zm5.55,.6v.51h-4.99v-.51h1.3v-.96h-.59v-1.74h2.95v-.73h-2.96v-.51h3.59v1.73h-2.95v.73h3.09v.52h-.74v.96h1.31Zm-3.09,0h1.18v-.96h-1.18v.96Zm8.37-4.24v5.33h-.59v-2.81h-.63v2.67h-.58v-5.1h.58v1.93h.63v-2.02h.59Zm-2.98,.45h.58v3.43h-2.17v-3.42h.58v1.21h1.01v-1.22Zm0,1.72h-1.01v1.19h1.01v-1.19Zm4.42,.09l-.33-.47c.5-.18,.88-.36,1.16-.52,.28-.17,.48-.33,.6-.5,.12-.17,.18-.35,.18-.56v-.16h.62v.19c0,.37-.11,.68-.34,.94l.05,.02,.21-.15c.08-.06,.16-.09,.23-.09,.06,0,.11,.02,.17,.05l1.54,.75-.34,.47-1.68-.87c-.06-.03-.12-.05-.18-.05-.06,0-.12,.02-.18,.05-.17,.15-.39,.29-.66,.43-.27,.14-.61,.29-1.03,.46Zm4.36,.41v.52h-4.99v-.52h2.19v-.69h.61v.69h2.19Zm-.67,1.92c0,.21-.07,.4-.21,.55-.14,.16-.34,.28-.62,.37-.27,.09-.6,.13-.99,.13s-.72-.04-1-.13c-.27-.09-.48-.21-.62-.37-.14-.16-.21-.34-.21-.55s.07-.4,.21-.55c.14-.16,.35-.28,.62-.37,.28-.09,.61-.13,1-.13s.72,.04,.99,.13c.28,.09,.48,.21,.62,.37,.14,.16,.21,.34,.21,.55Zm-.65-.04c0-.15-.1-.28-.3-.38-.19-.1-.49-.15-.88-.15s-.69,.05-.89,.15c-.2,.1-.3,.23-.3,.38v.08c0,.15,.1,.28,.3,.38,.2,.1,.5,.15,.89,.15s.69-.05,.88-.15c.2-.1,.3-.23,.3-.38v-.08Zm4.74-.24v-1.21h-1.12v-.54h1.12v-1.21h.6v1.21h1.12v.54h-1.12v1.21h-.6Zm5.4-2.12c.26,0,.46-.05,.58-.16,.13-.11,.19-.26,.19-.43v-.04c0-.19-.06-.34-.18-.44-.12-.11-.29-.16-.49-.16s-.38,.05-.52,.14c-.14,.09-.26,.22-.36,.38l-.46-.4c.07-.09,.14-.18,.22-.27,.08-.09,.18-.16,.29-.22,.11-.06,.23-.12,.37-.15,.14-.04,.3-.06,.47-.06,.2,0,.38,.02,.55,.07,.17,.05,.32,.12,.44,.22,.12,.09,.22,.21,.29,.35,.07,.13,.1,.29,.1,.46,0,.13-.02,.26-.07,.37-.04,.11-.1,.21-.18,.29-.07,.08-.16,.15-.26,.2-.1,.05-.2,.09-.31,.12v.03c.12,.02,.24,.06,.34,.12,.11,.05,.21,.12,.29,.21,.08,.09,.14,.19,.19,.31,.05,.12,.07,.25,.07,.41,0,.19-.04,.36-.11,.51-.07,.15-.18,.28-.31,.39-.13,.11-.29,.19-.47,.26-.19,.06-.39,.09-.62,.09-.2,0-.37-.02-.52-.07-.15-.04-.28-.1-.4-.16-.11-.07-.21-.15-.3-.24-.09-.09-.16-.19-.23-.29l.51-.4c.05,.09,.11,.16,.16,.24,.06,.07,.13,.13,.2,.18,.08,.05,.16,.09,.26,.12,.1,.03,.21,.04,.33,.04,.26,0,.46-.06,.6-.18,.14-.13,.21-.3,.21-.52v-.04c0-.22-.07-.39-.22-.5-.15-.11-.35-.17-.62-.17h-.45v-.58h.43Zm3.06,1.66c.15,0,.26,.04,.33,.12s.11,.18,.11,.3v.1c0,.2-.05,.41-.16,.62-.11,.22-.25,.4-.43,.55h-.49c.13-.13,.24-.26,.32-.38s.15-.26,.19-.41c-.11-.02-.18-.06-.24-.13-.05-.07-.08-.16-.08-.26v-.1c0-.12,.04-.22,.11-.3s.18-.12,.33-.12Zm2.96,.92c-.28,0-.53-.05-.75-.14-.22-.1-.42-.24-.58-.42-.16-.19-.28-.42-.37-.69-.09-.28-.13-.59-.13-.95s.04-.67,.13-.94c.09-.28,.21-.51,.37-.69,.16-.19,.35-.33,.58-.42,.23-.1,.48-.15,.75-.15s.53,.05,.75,.15c.23,.09,.42,.23,.58,.42,.16,.18,.29,.41,.37,.69,.09,.27,.13,.59,.13,.94s-.04,.67-.13,.95c-.09,.27-.21,.5-.37,.69-.16,.18-.35,.32-.58,.42-.22,.09-.47,.14-.75,.14Zm0-.61c.16,0,.31-.03,.44-.09,.14-.06,.25-.14,.35-.24,.1-.11,.17-.24,.23-.4,.05-.15,.08-.33,.08-.52v-.67c0-.19-.03-.37-.08-.52-.05-.15-.13-.28-.23-.39-.09-.11-.21-.19-.35-.25-.13-.06-.28-.09-.44-.09s-.32,.03-.45,.09-.25,.14-.35,.25c-.09,.11-.17,.24-.22,.39-.05,.15-.08,.33-.08,.52v.67c0,.19,.03,.37,.08,.52,.05,.15,.13,.29,.22,.4,.1,.11,.21,.19,.35,.24,.13,.06,.28,.09,.45,.09Zm4.45,.61c-.27,0-.53-.05-.75-.14-.22-.1-.41-.24-.58-.42-.16-.19-.28-.42-.37-.69-.09-.28-.13-.59-.13-.95s.04-.67,.13-.94c.09-.28,.21-.51,.37-.69,.16-.19,.35-.33,.58-.42,.23-.1,.48-.15,.75-.15s.53,.05,.75,.15c.23,.09,.42,.23,.58,.42,.16,.18,.29,.41,.37,.69,.09,.27,.13,.59,.13,.94s-.05,.67-.13,.95c-.09,.27-.21,.5-.37,.69-.16,.18-.35,.32-.58,.42-.22,.09-.47,.14-.75,.14Zm0-.61c.16,0,.31-.03,.45-.09,.14-.06,.25-.14,.35-.24,.1-.11,.18-.24,.23-.4,.05-.15,.08-.33,.08-.52v-.67c0-.19-.03-.37-.08-.52-.05-.15-.13-.28-.23-.39-.09-.11-.21-.19-.35-.25-.13-.06-.28-.09-.45-.09s-.32,.03-.45,.09c-.13,.06-.25,.14-.35,.25-.1,.11-.17,.24-.22,.39-.05,.15-.08,.33-.08,.52v.67c0,.19,.03,.37,.08,.52,.05,.15,.13,.29,.22,.4,.1,.11,.21,.19,.35,.24,.13,.06,.29,.09,.45,.09Zm4.46,.61c-.27,0-.53-.05-.75-.14-.22-.1-.41-.24-.58-.42-.16-.19-.28-.42-.37-.69-.08-.28-.13-.59-.13-.95s.04-.67,.13-.94c.09-.28,.21-.51,.37-.69,.16-.19,.35-.33,.58-.42,.23-.1,.48-.15,.75-.15s.53,.05,.75,.15c.23,.09,.42,.23,.58,.42,.16,.18,.29,.41,.37,.69,.09,.27,.13,.59,.13,.94s-.05,.67-.13,.95c-.09,.27-.21,.5-.37,.69-.16,.18-.35,.32-.58,.42-.22,.09-.47,.14-.75,.14Zm0-.61c.16,0,.31-.03,.45-.09,.14-.06,.25-.14,.35-.24,.1-.11,.18-.24,.23-.4,.05-.15,.08-.33,.08-.52v-.67c0-.19-.03-.37-.08-.52-.05-.15-.13-.28-.23-.39-.09-.11-.21-.19-.35-.25-.13-.06-.28-.09-.45-.09s-.32,.03-.45,.09c-.13,.06-.25,.14-.35,.25-.1,.11-.17,.24-.22,.39s-.08,.33-.08,.52v.67c0,.19,.03,.37,.08,.52,.05,.15,.13,.29,.22,.4,.1,.11,.21,.19,.35,.24,.13,.06,.29,.09,.45,.09Zm6.54-.96v-3.2h.62v4.3h-.62v-.65h-1.24v-.45h1.24Zm-3.68-2.1c0-.31,.13-.55,.38-.73,.26-.18,.6-.27,1.02-.27s.75,.09,1,.27c.26,.18,.39,.42,.39,.73s-.13,.56-.39,.74c-.25,.18-.59,.27-1,.27s-.76-.09-1.02-.27c-.26-.18-.38-.43-.38-.74Zm.61,.04c0,.16,.07,.28,.21,.38,.14,.09,.33,.14,.57,.14s.42-.05,.56-.14c.14-.09,.21-.22,.21-.38v-.07c0-.16-.07-.28-.21-.38-.14-.09-.32-.14-.56-.14s-.43,.05-.57,.14c-.14,.09-.21,.22-.21,.38v.07Zm.46,1.81c-.4,.02-.86,.02-1.37,.02l-.05-.49c.68,0,1.35-.02,1.98-.05,.64-.03,1.18-.08,1.61-.14l.05,.46c-.44,.07-.99,.12-1.63,.16v.93h-.6v-.89Zm3.33,2v.5h-3.24c-.13,0-.23-.03-.3-.1-.06-.07-.1-.17-.1-.3v-1.01h.62v.91h3.02Zm7.5-3.65v.51h-.83v1.21h-.61v-3.01h.61v1.3h.83Zm-2.72-.71h-1.63v-.49h1.63v.49Zm-.85,2.39c-.26,0-.49-.03-.69-.1-.19-.07-.34-.16-.45-.29-.1-.12-.15-.26-.15-.41,0-.29,.16-.5,.47-.63v-.04h-.82v-.47h3.28v.47h-.81v.04c.31,.13,.47,.33,.47,.63,0,.15-.05,.29-.16,.41-.1,.12-.25,.22-.45,.29-.19,.07-.42,.1-.68,.1Zm-.07-.49h.15c.19,0,.34-.04,.46-.12,.13-.09,.19-.2,.19-.35s-.06-.26-.18-.34c-.12-.08-.28-.12-.47-.12h-.15c-.19,0-.35,.04-.48,.12-.12,.08-.18,.19-.18,.34s.06,.26,.18,.35c.13,.08,.29,.12,.48,.12Zm-.03,2.61h2.98v.5h-3.18c-.13,0-.23-.03-.3-.1-.06-.07-.1-.17-.1-.3v-.99h2.85v-.41h-2.88v-.49h3.47v1.38h-2.84v.41Zm8.68-5.09v4.02h-.62v-4.02h.62Zm-4.46,1.67c0-.29,.06-.54,.18-.75,.12-.22,.29-.38,.51-.49,.21-.11,.46-.17,.74-.17s.53,.06,.74,.17c.22,.11,.39,.28,.51,.49,.12,.21,.18,.46,.18,.75s-.06,.54-.18,.75c-.12,.21-.29,.37-.51,.49-.22,.11-.46,.17-.74,.17s-.53-.06-.74-.17c-.22-.11-.38-.28-.51-.49-.12-.22-.18-.47-.18-.75Zm2.21,.15v-.29c0-.23-.07-.42-.21-.55-.14-.14-.33-.21-.57-.21s-.43,.07-.57,.21c-.14,.14-.21,.32-.21,.55v.29c0,.23,.07,.42,.21,.55s.33,.21,.57,.21,.42-.07,.57-.21c.14-.14,.21-.32,.21-.55Zm-1.21,3.23v-1.46h.61v1.36h2.95v.51h-3.17c-.13,0-.23-.03-.3-.1-.06-.07-.1-.17-.1-.3Zm9.38-1.7h-2.19v2.2h-.61v-2.2h-2.19v-.52h3.51c.07-.32,.11-.61,.14-.89l-3.14,.13-.06-.51,3.24-.1c.01-.23,.02-.47,.02-.72h-3.07v-.52h3.69v.52c0,.77-.06,1.47-.19,2.09h.86v.52Zm4.97-2.65h-3.84v-.51h3.84v.51Zm.58,2.25v.53h-4.99v-.53h2.19v-.53h-1.67v-.51h.85l-.16-.89,.62-.07,.12,.96h1.08l.12-.96,.62,.07-.17,.89h.86v.51h-1.66v.53h2.19Zm-3.67,2.02h3.04v.51h-3.26c-.13,0-.23-.03-.3-.1-.06-.07-.1-.17-.1-.3v-1.22h.62v1.11Zm4.76-1.47l-.21-1.82v-1.21h.72v1.21l-.2,1.82h-.3Zm.15,1.29c-.15,0-.27-.04-.34-.11-.07-.08-.11-.17-.11-.29v-.1c0-.12,.03-.21,.11-.29,.07-.08,.19-.12,.34-.12s.27,.04,.33,.12c.07,.07,.11,.17,.11,.29v.1c0,.12-.04,.22-.11,.29-.07,.07-.18,.11-.33,.11Z"/><path class="ae" d="M929.57,85.02l7.61,7.61m0-7.61l-7.61,7.61"/><path class="ac" d="M334.87,232.09c.64,0,1.11-.13,1.41-.38,.31-.27,.46-.6,.46-1.01v-.11c0-.46-.15-.82-.45-1.07-.29-.27-.69-.4-1.2-.4s-.93,.12-1.31,.35c-.37,.23-.7,.56-.97,.99l-1.34-1.21c.19-.26,.4-.5,.62-.72s.5-.43,.8-.59c.3-.17,.63-.3,1.01-.4,.37-.1,.79-.14,1.26-.14,.56,0,1.08,.07,1.53,.21,.47,.13,.87,.32,1.2,.58,.34,.26,.6,.56,.78,.93,.18,.35,.27,.75,.27,1.2,0,.36-.06,.69-.18,.97-.11,.29-.26,.54-.46,.75-.19,.21-.42,.39-.69,.53-.26,.13-.53,.22-.82,.29v.1c.32,.06,.62,.17,.91,.3,.29,.14,.53,.32,.74,.56,.21,.22,.38,.49,.5,.8,.13,.31,.19,.66,.19,1.05,0,.49-.1,.94-.3,1.34-.19,.4-.47,.75-.83,1.04-.36,.29-.79,.51-1.29,.67-.5,.15-1.06,.22-1.68,.22-.54,0-1.02-.06-1.44-.18-.42-.11-.78-.26-1.1-.45-.31-.19-.58-.41-.82-.66-.23-.26-.44-.52-.61-.8l1.55-1.18c.13,.22,.27,.43,.42,.62,.15,.18,.32,.34,.51,.48,.19,.14,.41,.25,.66,.32,.25,.07,.52,.11,.83,.11,.62,0,1.09-.15,1.42-.45,.33-.3,.5-.71,.5-1.23v-.11c0-.51-.18-.9-.54-1.17-.35-.27-.86-.4-1.53-.4h-1.1v-1.76h1.1Zm15.3-3.96h-4.91v-1.57h4.91v1.57Zm-3.45,2.56h-4.15v-1.55h10.32v1.55h-4.2c-.09,.63-.35,1.19-.78,1.69l.13,.05,.46-.34c.21-.16,.44-.24,.67-.24,.16,0,.34,.04,.53,.13l3.93,1.82-1.02,1.44-4.41-2.21c-.15-.09-.31-.13-.48-.13-.16,0-.31,.04-.46,.13l-.03,.02c-.92,.75-2.39,1.49-4.41,2.24l-.99-1.41c1.52-.53,2.67-1.05,3.45-1.57,.78-.51,1.26-1.05,1.45-1.63Zm7.57,6.62v1.6h-13.17v-1.6h5.63v-2.57h1.92v2.57h5.63Zm18.66,0v1.6h-13.17v-1.6h5.63v-2.75h-3.92v-7.48h1.89v2.25h5.91v-2.25h1.89v7.48h-3.85v2.75h5.63Zm-9.57-4.31h5.91v-2.09h-5.91v2.09Zm12.71-.74l-1.01-1.41c1.24-.43,2.22-.84,2.96-1.25,.74-.42,1.26-.84,1.58-1.28s.48-.91,.48-1.42v-.4h1.89v.5c0,.98-.31,1.81-.93,2.49l.14,.05,.62-.43c.23-.17,.47-.26,.72-.26,.17,0,.33,.04,.48,.11l3.76,1.84-1.04,1.42-4.23-2.17c-.17-.1-.35-.14-.54-.14-.14,0-.3,.04-.5,.13-.47,.37-1.05,.74-1.76,1.09s-1.58,.73-2.62,1.13Zm11.43,.75v1.55h-13.17v-1.55h13.17Zm-3.71,2.35h1.82v5.61h-8.2c-.81,0-1.21-.4-1.21-1.21v-4.39h1.84v1.36h5.75v-1.36Zm0,2.81h-5.75v1.33h5.75v-1.33Zm6.55-7.35c0-.74,.19-1.4,.58-2s.96-1.07,1.73-1.41c.78-.35,1.73-.53,2.84-.53s2.06,.18,2.83,.53c.78,.34,1.36,.81,1.74,1.41,.38,.6,.58,1.26,.58,2s-.19,1.4-.58,2c-.38,.59-.96,1.05-1.74,1.41-.77,.34-1.71,.51-2.83,.51s-2.07-.17-2.84-.51c-.77-.35-1.34-.82-1.73-1.41-.38-.6-.58-1.26-.58-2Zm8.25,.19v-.4c0-.65-.26-1.18-.78-1.58-.52-.42-1.29-.62-2.32-.62s-1.8,.21-2.32,.62c-.52,.4-.78,.93-.78,1.58v.4c0,.65,.26,1.18,.78,1.6,.52,.4,1.29,.61,2.32,.61s1.8-.2,2.32-.61c.52-.42,.78-.95,.78-1.6Zm-9.68,6.28h13.17v1.61h-13.17v-1.61Zm27.74,.03v1.58h-13.17v-1.58h5.63v-2.11h-3.79v-4.78h7.57v-1.69h-7.61v-1.57h9.52v4.76h-7.56v1.69h7.91v1.58h-4.14v2.11h5.63Zm-72.27,23.95v1.6h-13.17v-1.6h5.63v-2.7c-1.35-.15-2.39-.58-3.12-1.28-.71-.7-1.07-1.57-1.07-2.59,0-.74,.19-1.4,.58-1.98s.96-1.05,1.73-1.39c.78-.34,1.73-.51,2.84-.51s2.06,.17,2.83,.51c.78,.34,1.36,.8,1.74,1.39,.38,.59,.58,1.25,.58,1.98,0,1.02-.36,1.89-1.09,2.59-.71,.7-1.75,1.13-3.1,1.28v2.7h5.63Zm-6.58-4.17c1.03,0,1.81-.2,2.32-.61,.52-.4,.78-.93,.78-1.58v-.4c0-.65-.26-1.18-.78-1.58-.51-.4-1.28-.61-2.32-.61s-1.81,.2-2.33,.61c-.51,.4-.77,.93-.77,1.58v.4c0,.65,.26,1.18,.77,1.58,.52,.4,1.3,.61,2.33,.61Zm19.3-1.93h-9.33v-4.47h1.9v2.99h7.43v1.49Zm1.85,1.07v1.55h-13.17v-1.55h13.17Zm-9.38,7.37h7.85v1.44h-8.45c-.81,0-1.21-.4-1.21-1.21v-2.56h7.46v-1.01h-7.54v-1.41h9.36v3.72h-7.46v1.02Zm28.43-6.15h-2.08v6.97h-1.9v-14.11h1.9v5.55h2.08v1.6Zm-6.89-4.75h-4.76v-1.61h4.76v1.61Zm-6.79,1.34h8.55v1.57h-2v.11c.85,.5,1.28,1.36,1.28,2.59,0,.66-.15,1.25-.45,1.77-.3,.51-.71,.91-1.25,1.2-.52,.28-1.11,.42-1.77,.42s-1.27-.14-1.81-.42c-.52-.29-.93-.69-1.23-1.2s-.45-1.1-.45-1.77c0-1.23,.43-2.09,1.28-2.59v-.11h-2.16v-1.57Zm5.99,3.53c0-.55-.15-.98-.45-1.28-.29-.31-.68-.46-1.18-.46s-.91,.15-1.21,.46c-.3,.3-.45,.72-.45,1.28v.78c0,.54,.15,.97,.45,1.28,.31,.31,.71,.46,1.21,.46s.89-.15,1.18-.45c.3-.31,.45-.74,.45-1.29v-.78Zm18.04-5.32h-7.41v-1.55h9.3v4.23h-7.38v1.18h7.73v1.57h-9.62v-4.23h7.38v-1.2Zm3.84,8.13h-5.63v4.55h-1.92v-4.55h-5.63v-1.6h13.17v1.6Zm14.57,.88v1.6h-13.17v-1.6h5.63v-3.12h-3.79v-6.9h9.56v1.61h-7.64v3.66h7.73v1.63h-3.95v3.12h5.63Zm17.99-10.96v14.09h-1.82v-7.34h-1.45v6.95h-1.82v-13.5h1.82v4.99h1.45v-5.19h1.82Zm-5.99,8.26l.22,1.53c-1.42,.33-3.08,.5-4.99,.5h-1.18v-8.87h1.82v7.29c1.64-.02,3.01-.17,4.12-.45Zm22.4-8.26h1.92v14.09h-1.92v-14.09Zm-9.86,1.09h8.02v1.6h-8.02v-1.6Zm-.43,8.01l1.92-.02-.43-5.39,1.89-.14,.26,5.5c.66-.02,1.17-.04,1.52-.06l.4-5.47,1.87,.18-.54,5.19c.89-.07,1.6-.14,2.13-.21l.19,1.49c-1.12,.17-2.47,.3-4.06,.38s-3.24,.13-4.95,.13l-.18-1.58Zm25.93-2.24h-9.46v-6.46h1.89v1.74h5.69v-1.74h1.89v6.46Zm-1.89-3.16h-5.69v1.6h5.69v-1.6Zm3.74,6.14h-5.63v4.81h-1.92v-4.81h-5.63v-1.6h13.17v1.6Zm12.75-4.08h-9.4v-5.19h1.9v3.63h7.49v1.57Zm1.82,1.36v1.6h-13.17v-1.6h13.17Zm-9.43,5.66h7.77v1.58h-8.47c-.81,0-1.21-.4-1.21-1.21v-3.31h1.92v2.94Zm27.73-12.77v14.09h-1.76v-7.19h-1.29v6.81h-1.74v-13.5h1.74v5.13h1.29v-5.34h1.76Zm-7.72,4.09c.02-.62,.03-1.1,.03-1.44h-4.67v-1.53h6.42v1.41c0,1.03-.04,1.98-.13,2.84-.09,.86-.22,1.73-.42,2.59l-1.71-.22c.15-.69,.27-1.42,.35-2.19l-4.73,.29-.19-1.52,5.03-.22Zm2.3,5.05l.18,1.52c-.95,.17-2.11,.3-3.5,.4-1.38,.1-2.79,.14-4.22,.14l-.14-1.6c.54,0,1.34-.01,2.38-.03v-3h1.74v2.92c1.51-.09,2.7-.2,3.56-.35Zm19.39-9.14v8.45h-1.9v-3.53h-2.49v-1.55h2.49v-3.37h1.9Zm-10.72,8.37l-1.42-1.2c1.19-.88,2.05-1.69,2.57-2.41,.52-.72,.79-1.51,.8-2.35h-2.86v-1.58h7.57v1.58h-2.81v.05c0,.92-.21,1.74-.62,2.48l.11,.06,.4-.29c.15-.12,.31-.18,.5-.18s.36,.06,.54,.18l2.51,2.14-1.42,1.23-2.64-2.37c-.1-.06-.19-.1-.27-.1-.1,0-.18,.03-.24,.1-.3,.4-.67,.82-1.1,1.23-.43,.4-.96,.88-1.61,1.42Zm1.29,.83h9.43v5.64h-1.87v-4.04h-7.56v-1.6Z"/><path class="ag" d="M904.65,237.59l8.18,7.61h-34.81"/><path class="ag" d="M277.23,237.59l-8.18,7.61h34.81"/><rect class="aw" x="625.18" y="562.15" width="25.87" height="9.89"/><path class="ab" d="M631.8,568.62h-.7v-.99h.7c.08,.27,.24,.4,.47,.4,.16,0,.25-.06,.25-.2,0-.07-.03-.13-.09-.18-.06-.05-.19-.12-.39-.21-.25-.11-.44-.21-.56-.3-.11-.08-.21-.18-.29-.32-.08-.13-.12-.28-.12-.44,0-.29,.1-.51,.28-.68,.19-.16,.41-.24,.68-.24s.5,.08,.69,.23v-.19h.7v.88h-.7c-.08-.24-.23-.37-.45-.37-.15,0-.23,.06-.23,.19,0,.06,.02,.11,.06,.14,.04,.03,.18,.1,.4,.22,.3,.15,.51,.26,.61,.33,.05,.03,.1,.08,.16,.14,.06,.06,.1,.13,.14,.19,.08,.14,.12,.3,.12,.47,0,.26-.1,.48-.29,.66-.19,.19-.44,.28-.73,.28-.27,0-.52-.08-.74-.24v.2Zm3.61-1.56c0,.35,.03,.58,.1,.7,.06,.12,.16,.18,.3,.18s.24-.06,.3-.18c.06-.12,.1-.35,.1-.71s-.03-.57-.1-.69c-.06-.12-.16-.18-.3-.18-.13,0-.23,.06-.3,.18-.07,.12-.1,.35-.1,.7Zm-1.35,0c0-.26,.06-.51,.19-.75,.12-.24,.32-.45,.58-.61,.1-.06,.19-.1,.29-.14,.1-.03,.21-.06,.32-.08,.12-.02,.24-.03,.37-.03,.56,0,.99,.16,1.29,.49,.15,.16,.27,.33,.35,.52,.08,.19,.11,.38,.11,.59,0,.43-.16,.81-.47,1.13-.32,.32-.74,.48-1.28,.48s-.94-.15-1.26-.45c-.32-.3-.48-.68-.48-1.16Zm6.93,1.56h-2.95v-.74h.28v-1.62h-.28v-.74h1.77v.74h-.29v1.62h.73v-.5h.74v1.24Zm1.84-2.36v1.62h.11c.28,0,.46-.08,.55-.22,.08-.15,.13-.34,.13-.57,0-.14-.02-.27-.05-.41-.04-.13-.1-.24-.19-.31-.1-.07-.26-.11-.49-.11h-.05Zm0,2.36h-1.44v-.74h.24v-1.62h-.24v-.74h1.48c.34,0,.62,.02,.83,.06,.22,.04,.42,.13,.61,.26,.19,.13,.34,.31,.45,.53,.05,.11,.1,.22,.12,.34,.03,.12,.04,.25,.04,.38,0,.27-.06,.51-.17,.74-.11,.22-.25,.39-.43,.51-.17,.11-.35,.19-.56,.23-.2,.03-.51,.05-.93,.05Z"/><path class="ac" d="M883.34,117.67c-.59,0-1.16,.18-1.66,.5-.49,.33-.87,.79-1.1,1.34-.22,.54-.28,1.14-.17,1.72,.11,.58,.4,1.11,.81,1.53,.42,.42,.95,.7,1.53,.82,.58,.12,1.18,.06,1.72-.17s1.01-.61,1.34-1.1c.33-.49,.5-1.07,.5-1.66,0-.79-.31-1.55-.87-2.11-.56-.56-1.32-.87-2.11-.87h0Zm0,4.77c-.35,0-.7-.11-.99-.3-.29-.2-.53-.48-.66-.8-.14-.33-.17-.69-.1-1.03,.07-.35,.24-.67,.49-.92,.25-.25,.57-.42,.91-.49,.35-.07,.71-.03,1.03,.1,.33,.14,.6,.36,.8,.66,.19,.29,.3,.64,.3,.99,0,.47-.19,.93-.53,1.26-.33,.34-.79,.52-1.26,.52h0Zm5.36,6.56v-.6c0-1.11-.44-2.17-1.22-2.95-.78-.78-1.85-1.22-2.95-1.22h-2.38c-1.11,0-2.17,.44-2.95,1.22-.78,.78-1.22,1.84-1.22,2.95v.6h1.19v-.6c0-.79,.32-1.55,.88-2.11,.56-.56,1.32-.87,2.11-.87h2.38c.79,0,1.55,.31,2.11,.87,.56,.56,.88,1.32,.88,2.11v.6h1.19Z"/><path class="ac" d="M859.37,126.6c-.28-.27-.55-.54-.81-.82-.22-.23-.35-.39-.35-.39l-1.67-.8c.67-.76,1.04-1.73,1.04-2.74,0-2.3-1.87-4.17-4.17-4.17s-4.17,1.87-4.17,4.17,1.87,4.17,4.17,4.17c1.05,0,2.01-.39,2.74-1.04l.8,1.67s.16,.13,.39,.36c.23,.22,.53,.51,.83,.81l.81,.83,.36,.39,1.26-1.26-.38-.36c-.22-.22-.53-.52-.83-.81h0Zm-5.97-1.77c-1.64,0-2.98-1.34-2.98-2.98s1.34-2.98,2.98-2.98,2.98,1.34,2.98,2.98-1.34,2.98-2.98,2.98Z"/><path class="ac" d="M905.38,120.91c.06-.08,.13-.14,.21-.19,.09-.04,.18-.07,.28-.07h8.15l.69-1.65c.09-.22,.24-.4,.44-.53,.2-.13,.43-.2,.66-.2h1.39v1.19h-1.39l-2.83,6.79c-.05,.11-.12,.2-.22,.27-.1,.07-.21,.1-.33,.1h-4.77c-.25,0-.47-.15-.56-.39l-1.79-4.77c-.03-.09-.05-.19-.03-.28s.05-.19,.1-.27Zm2.69,4.51h3.96l1.49-3.58h-6.79l1.34,3.58Z"/><path class="ac" d="M912.13,129c-.49,0-.89-.4-.89-.89s.4-.89,.89-.89,.89,.4,.89,.89-.4,.89-.89,.89Z"/><path class="ac" d="M907.96,129c-.49,0-.89-.4-.89-.89s.4-.89,.89-.89,.89,.4,.89,.89-.4,.89-.89,.89Z"/><g><rect class="y" x="907.89" y="413.13" width="28.54" height="28.92"/><path class="ac" d="M911.45,422.78h-.91v-2.38h4.84v3.6c0,.61,.06,1.02,.17,1.23,.11,.21,.34,.32,.7,.32,.43,0,.84-.12,1.21-.35v-2.42h-1.03v-2.38h4.96v5.19h.91v2.38h-4.84v-.96c-1.03,.73-2.09,1.1-3.17,1.1-.78,0-1.44-.25-2-.74-.56-.49-.84-1.43-.84-2.79v-1.8Z"/><path class="ac" d="M927.36,429.93c0,.54,.13,.96,.38,1.23,.24,.28,.55,.42,.93,.42,.89,0,1.33-.57,1.33-1.7s-.43-1.66-1.28-1.66c-.39,0-.71,.14-.97,.41-.26,.28-.39,.71-.39,1.31Zm-4.81-1.44v-2.38h4.84v.51c.83-.43,1.69-.65,2.57-.65,1.12,0,2.09,.37,2.9,1.09,.8,.73,1.2,1.69,1.2,2.88s-.4,2.14-1.18,2.83c-.79,.7-1.82,1.05-3.08,1.05-.94,0-1.74-.21-2.4-.62v1.58h1v2.38h-5.85v-2.38h.93v-6.28h-.91Z"/><path class="ac" d="M932.53,404h-11.99c-3.41,0-6.18,2.81-6.18,6.27v.85c0,3.47,2.77,6.27,6.18,6.27h7.63s3.28,1.19,.93,2.98c0,0,2.92-.99,2.99-2.98h.44c3.41,0,6.18-2.81,6.18-6.27v-.85c0-3.47-2.77-6.27-6.18-6.27h0Z"/><path class="av" d="M917.44,408.16c.01-.14-.06-.21-.17-.21h-.33v-.31h2.74c1.02,0,1.89,.43,1.88,1.42-.03,1.28-1,1.81-2.45,1.81h-.53l-.1,1.23c-.04,.39-.49,.55-.92,.55-.32,0-.46-.11-.45-.36l.32-4.14h0Zm1.5-.21c-.08,0-.12,.04-.13,.15l-.19,2.47h.14c.42,0,1.37-.01,1.37-1.52,0-.58-.18-1.1-.79-1.1h-.41Z"/><path class="av" d="M925.82,411.56c-.03,.4,.21,.55,.71,.22l.08,.11c-.45,.56-1.03,.77-1.44,.77-.39,0-.64-.13-.75-.46-.16,.3-.48,.46-.84,.46-1.03,0-1.85-.52-1.85-1.76,0-1.59,1.24-2.16,2.15-2.16,.43,0,.77,.16,.94,.48l1.05-.48h.13l-.18,2.82h0Zm-1.28-2.2c.01-.24-.27-.38-.52-.38-.5,0-.89,.57-.89,2.06,0,.81,.12,1.35,.57,1.35,.17,0,.51-.07,.68-.47,0-.06,0-.13,0-.2l.15-2.37h0Z"/><path class="av" d="M928.19,412.89c-.28,.1-.43,.38-.42,.73,.04,.49,.71,.59,1.1,.59,.36,0,.89-.07,1.11-.35,.18-.24,.25-.78-.14-1.03-.41-.25-1.08-.14-1.64-.19-.47-.04-.79-.27-.83-.63-.06-.29,.17-.64,.47-.84-.29-.13-.49-.38-.5-.68-.06-1.12,.91-1.69,2.13-1.75,.36-.01,.66,0,.92,.07,.43-.14,.73-.41,.89-.64,.29,.08,.67,.6,.65,.86l-.96,.06c.21,.17,.32,.39,.34,.64,.07,1.25-.99,1.53-2.14,1.6-.35,.02-.66,0-.91-.03l-.1,.08c-.08,.06-.13,.26-.03,.35,.14,.13,.25,.18,.83,.16,1.41-.08,2.26,.07,2.51,.88,.14,.49,.05,1.1-.49,1.47-.49,.35-1.21,.45-2.08,.45-1.37,0-2.07-.38-2.1-.96-.03-.67,.53-.97,1.39-.94v.14h.01Zm.46-2.49c.03,.59,.31,.61,.52,.6,.49-.03,.88-.38,.83-1.37-.03-.5-.22-.65-.52-.64-.47,.02-.88,.43-.83,1.42h0Z"/><path class="av" d="M932.16,410.85c0-1.41,1.1-2.11,2.27-2.11,1.09,0,1.66,.49,1.66,.98,0,.87-1.06,1.13-2.55,1.26,.08,.56,.56,.95,1.16,.95,.46,0,.81-.16,1.11-.43l.11,.1c-.27,.67-1,1.07-1.92,1.07-.99,.02-1.84-.68-1.84-1.81h0Zm2.27-1.88c-.49,0-.89,.73-.9,1.77,.89-.13,1.35-.75,1.35-1.29,0-.29-.14-.49-.45-.49h0Z"/></g><g><text class="an" transform="translate(525.29 118.14)"><tspan x="0" y="0">R</tspan></text><text class="an" transform="translate(537.21 118.14)"><tspan x="0" y="0">D</tspan></text><text class="an" transform="translate(525.29 130.02)"><tspan x="0" y="0">H</tspan></text><text class="an" transform="translate(537.6 130.02)"><tspan x="0" y="0">L</tspan></text><rect class="am" x="530.39" y="113.75" width="5.96" height="5.96"/><rect class="am" x="524.45" y="119.69" width="5.96" height="5.96"/><rect class="am" x="530.39" y="119.69" width="5.96" height="5.96"/><rect class="am" x="536.33" y="119.69" width="5.96" height="5.96"/><path class="am" d="M530.39,127.92c.06-.23,.19-.43,.37-.6,.28-.26,.65-.39,1.13-.39s.83,.12,1.12,.37c.05,.05,.1,.1,.14,.15,.11-.17,.25-.29,.44-.37,.24-.1,.59-.15,1.05-.15,.17,0,.32,0,.46,.02,.14,.01,.26,.03,.36,.05,.22,.04,.38,.11,.49,.2,.11,.09,.18,.19,.22,.3,.04,.11,.06,.28,.06,.52v.74h.11v-3.14h-5.96v2.3Z"/><path class="am" d="M532.27,128.09c0-.05,0-.08,0-.09,0-.14-.03-.26-.1-.35-.07-.09-.15-.14-.26-.14s-.2,.05-.26,.15c-.06,.1-.09,.22-.09,.37,0,.02,0,.04,0,.05h.71Z"/><path class="am" d="M534.24,128c.31,0,.56,.04,.75,.13v-.08c0-.16-.01-.27-.03-.33-.02-.07-.07-.12-.15-.17-.08-.05-.18-.07-.29-.07-.2,0-.36,.08-.46,.25l-.78-.08c.09,.16,.14,.35,.17,.57,.21-.14,.47-.21,.8-.21Z"/><path class="am" d="M534.37,128.45c-.06,.07-.1,.15-.1,.25s.03,.19,.1,.25c.07,.07,.15,.1,.23,.1,.16,0,.28-.05,.38-.14v-.47c-.11-.06-.23-.1-.35-.1-.11,0-.2,.03-.26,.1Z"/><path class="am" d="M531.99,129.05c.17,0,.3-.1,.37-.29l.73,.09s0-.02,0-.04c0-.15,.05-.28,.13-.4h-1.67c0,.42,.15,.63,.44,.63Z"/><path class="am" d="M534.99,129.57v-.17c-.22,.15-.51,.22-.87,.22-.34,0-.6-.08-.77-.24-.06-.06-.11-.11-.15-.18-.08,.09-.18,.17-.3,.24-.24,.14-.53,.21-.86,.21-.56,0-.99-.12-1.27-.37-.19-.16-.31-.36-.38-.59v2.9h5.96v-2.01h-1.36Z"/><rect class="af" x="524.43" y="113.75" width="5.96" height="5.96"/><rect class="af" x="536.35" y="113.75" width="5.96" height="5.96"/><path class="af" d="M530.34,128.3c0-.13,.02-.26,.05-.38v-2.3h-5.96v5.96h5.96v-2.9c-.03-.12-.05-.25-.05-.38Z"/><polygon class="af" points="536.35 128.77 536.55 128.77 536.55 129.57 536.35 129.57 536.35 131.59 542.31 131.59 542.31 125.62 536.35 125.62 536.35 128.77"/></g><image transform="translate(596.82 451.81) scale(.13)" xlink:href="../../../../../Downloads/1 (1)/card/img-1.png"/><image transform="translate(368.35 451.81) scale(.13)" xlink:href="../../../../../Downloads/1 (1)/card/img-2.png"/><image transform="translate(710.79 451.81) scale(.13)" xlink:href="../../../../../Downloads/1 (1)/card/img.png"/><image transform="translate(482.5 451.81) scale(.13)" xlink:href="../../../../../Downloads/1 (1)/unsplash_tnWjbdPmk1M.png"/></g></g></g></g><g class="aj"><g class="ax"><g class="ai"><g class="as"><g class="al"><rect class="ab" x="859.75" y="166.58" width="174.96" height="765.46"/><rect class="av" x="859.75" y="166.58" width="174.96" height="328.05"/><circle class="au" cx="964.72" cy="431.21" r="4.37"/><circle class="au" cx="951.6" cy="431.21" r="4.37"/><circle class="ac" cx="977.84" cy="431.21" r="4.37"/><path class="ac" d="M916.06,431.21l5.47-5.47v10.94l-5.47-5.47Z"/><rect class="ac" x="931.37" y="425.74" width="1.09" height="10.94"/><rect class="ac" x="935.74" y="425.74" width="1.09" height="10.94"/><g><rect class="b`" x="875.05" y="271.56" width="171.68" height="131.22"/><rect class="af" x="875.05" y="271.56" width="171.68" height="131.22"/></g><path class="ac" d="M879.84,191.18h-3.39v-1.42h.55v-3.1h-.55v-1.42h3.39v1.42h-.54v3.1h.54v1.42Zm4.15,0h-3.35v-1.3h.53v-1.54h-.53v-1.3h.53v-.1c0-.43,.09-.78,.28-1.04,.18-.26,.42-.45,.73-.58,.3-.13,.79-.2,1.48-.2,.31,0,.61,0,.91,.02v1.16c-.2-.02-.38-.03-.53-.03-.2,0-.35,.03-.46,.08-.11,.05-.18,.13-.22,.22-.04,.09-.06,.24-.06,.48h.79v1.3h-.79v1.54h.7v1.3Zm5.78,1.9h-1.81v-1.26h.7l.21-.42-1.59-3.06h-.32v-1.3h2.82v1.3h-.46l.72,1.63,.67-1.63h-.4v-1.3h2.14v1.3h-.41l-2.26,4.74Zm5.39-3.99c0,.66,.24,.99,.71,.99,.5,0,.75-.33,.75-1,0-.3-.06-.54-.18-.71-.13-.17-.3-.25-.53-.25s-.41,.08-.54,.25c-.14,.17-.21,.41-.21,.72Zm-2.17,0c0-.61,.26-1.12,.77-1.54,.51-.42,1.2-.63,2.08-.63s1.59,.2,2.14,.61c.55,.4,.82,.93,.82,1.58s-.26,1.15-.79,1.57c-.52,.42-1.22,.63-2.08,.63-.93,0-1.65-.21-2.17-.63-.52-.42-.78-.94-.78-1.58Zm7.06-.75h-.5v-1.3h2.65v1.97c0,.33,.03,.56,.09,.67,.06,.12,.19,.18,.38,.18,.24,0,.46-.06,.67-.19v-1.32h-.57v-1.3h2.72v2.84h.5v1.3h-2.65v-.53c-.57,.4-1.15,.6-1.74,.6-.42,0-.79-.14-1.09-.41-.31-.27-.46-.78-.46-1.53v-.98Zm12.8,.75c0-.26-.06-.48-.18-.65-.12-.17-.3-.26-.53-.26-.49,0-.73,.31-.73,.94,0,.26,.06,.47,.18,.64,.12,.17,.29,.26,.53,.26,.22,0,.39-.08,.53-.23,.13-.15,.2-.39,.2-.71Zm2.67,.79v1.3h-2.69v-.28c-.4,.24-.86,.35-1.38,.35-.58,0-1.1-.18-1.55-.53-.45-.36-.67-.87-.67-1.53,0-.71,.21-1.27,.62-1.66,.42-.38,.97-.58,1.67-.58,.51,0,.95,.11,1.32,.34v-.76h-.53v-1.3h2.68v4.64h.54Zm3.03-.78c0,.66,.24,.99,.71,.99,.5,0,.75-.33,.75-1,0-.3-.06-.54-.18-.71-.13-.17-.3-.25-.53-.25s-.41,.08-.54,.25c-.14,.17-.21,.41-.21,.72Zm-2.17,0c0-.61,.26-1.12,.77-1.54,.51-.42,1.2-.63,2.08-.63s1.59,.2,2.14,.61,.82,.93,.82,1.58-.26,1.15-.79,1.57c-.52,.42-1.22,.63-2.08,.63-.93,0-1.65-.21-2.17-.63-.52-.42-.78-.94-.78-1.58Zm9.94,2.09h-3.28v-1.3h.53v-1.54h-.53v-1.3h2.68v.53c.53-.4,1.09-.6,1.7-.6,.53,0,.93,.15,1.2,.44,.27,.29,.4,.76,.4,1.41v1.06h.49v1.3h-2.64v-1.84c0-.4-.03-.67-.1-.79-.07-.13-.22-.19-.42-.19-.19,0-.4,.07-.62,.22v1.3h.6v1.3Zm4.93-2.95h-.21l-.6-1.9c-.04-.14-.06-.27-.06-.4,0-.21,.07-.4,.22-.56,.15-.16,.33-.23,.56-.23,.24,0,.44,.08,.57,.24,.13,.17,.2,.36,.2,.59,0,.1-.02,.22-.06,.37l-.6,1.9Zm4.97,1.44v1.27c-.14,.09-.34,.18-.61,.25-.28,.07-.55,.11-.8,.11-.32,0-.6-.05-.83-.16-.24-.11-.41-.25-.53-.44-.07-.11-.11-.2-.14-.29-.03-.09-.05-.19-.07-.29-.02-.19-.03-.55-.03-1.09v-.7h-.53v-1.3h.53v-.64l2.15-1.02v1.66h.87v1.3h-.87v.8c0,.26,.02,.44,.07,.53,.05,.09,.14,.13,.29,.13,.14,0,.31-.04,.5-.13Zm5.75,1.51h-2.68v-1.3h.53v-3.34h-.54v-1.3h2.69v4.14l1.35-1.32h-.76v-1.02h2.65v1.12h-.48l-.78,.76,.94,.96h.34v1.3h-1.54l-1.71-1.8v1.8Zm7.34,0h-3.28v-1.3h.53v-1.54h-.53v-1.3h2.68v.53c.53-.4,1.09-.6,1.7-.6,.53,0,.93,.15,1.2,.44,.27,.29,.4,.76,.4,1.41v1.06h.49v1.3h-2.64v-1.84c0-.4-.03-.67-.1-.79-.07-.13-.21-.19-.42-.19-.19,0-.4,.07-.62,.22v1.3h.6v1.3Zm6.16-2.08c0,.66,.24,.99,.71,.99,.5,0,.75-.33,.75-1,0-.3-.06-.54-.18-.71-.13-.17-.3-.25-.53-.25s-.41,.08-.54,.25c-.14,.17-.21,.41-.21,.72Zm-2.17,0c0-.61,.26-1.12,.77-1.54,.51-.42,1.2-.63,2.08-.63s1.59,.2,2.14,.61c.55,.4,.82,.93,.82,1.58s-.26,1.15-.79,1.57c-.52,.42-1.22,.63-2.08,.63-.93,0-1.65-.21-2.17-.63-.52-.42-.78-.94-.78-1.58Zm9.69,2.14h-1.7l-1.27-2.89h-.44v-1.3h2.79v1.3h-.41l.49,1.38,1.02-2.68h1.59l.93,2.68,.53-1.38h-.4v-1.3h2.02v1.3h-.41l-1.2,2.89h-1.7l-.95-2.12-.89,2.12Zm-83.24,10.39h-1.7l-1.27-2.89h-.44v-1.3h2.79v1.3h-.41l.49,1.38,1.02-2.68h1.59l.93,2.68,.53-1.38h-.4v-1.3h2.02v1.3h-.41l-1.2,2.89h-1.7l-.95-2.12-.89,2.12Zm8.9-.05h-3.27v-1.3h.54v-3.34h-.54v-1.3h2.69v2.3c.57-.38,1.13-.58,1.69-.58,.49,0,.87,.14,1.16,.42,.28,.28,.43,.79,.43,1.51v.99h.49v1.3h-2.64v-1.7c0-.52-.03-.84-.09-.97-.06-.13-.19-.2-.39-.2s-.42,.07-.64,.22v1.34h.58v1.3Zm7.27-1.06v-.76c-.19-.1-.39-.15-.61-.15-.19,0-.34,.05-.45,.15-.11,.11-.17,.24-.17,.4s.06,.3,.17,.41c.12,.11,.25,.16,.4,.16,.27,0,.48-.07,.65-.22Zm-1.61-1.93l-1.68-.17c.19-.41,.48-.69,.9-.86,.41-.17,1.01-.25,1.8-.25,.29,0,.56,.01,.79,.03,.23,.02,.44,.04,.62,.08,.38,.07,.66,.18,.84,.33,.18,.15,.31,.31,.38,.49,.07,.18,.11,.46,.11,.84v1.2h.53v1.3h-2.68v-.28c-.37,.24-.87,.36-1.49,.36-.58,0-1.02-.13-1.32-.38-.3-.26-.45-.56-.45-.91,0-.39,.18-.7,.55-.95,.36-.25,.84-.37,1.43-.37,.54,0,.96,.07,1.28,.21v-.12c0-.26-.02-.44-.06-.54-.04-.11-.13-.2-.26-.28-.14-.07-.31-.11-.5-.11-.34,0-.61,.13-.79,.4Zm8.39,1.47v1.27c-.14,.09-.34,.18-.61,.25-.28,.07-.55,.11-.8,.11-.32,0-.6-.05-.83-.16-.24-.11-.41-.25-.53-.44-.07-.11-.11-.2-.15-.29-.03-.09-.05-.19-.07-.29-.02-.19-.03-.55-.03-1.09v-.7h-.53v-1.3h.53v-.64l2.15-1.02v1.66h.87v1.3h-.87v.8c0,.26,.02,.44,.07,.53,.05,.09,.14,.13,.29,.13,.14,0,.31-.04,.5-.13Zm6.54,0v1.27c-.14,.09-.34,.18-.61,.25-.28,.07-.55,.11-.8,.11-.32,0-.6-.05-.83-.16-.24-.11-.41-.25-.53-.44-.07-.11-.11-.2-.15-.29-.03-.09-.05-.19-.07-.29-.02-.19-.03-.55-.03-1.09v-.7h-.53v-1.3h.53v-.64l2.15-1.02v1.66h.87v1.3h-.87v.8c0,.26,.02,.44,.07,.53,.05,.09,.14,.13,.29,.13,.14,0,.31-.04,.5-.13Zm3.05-.57c0,.66,.24,.99,.71,.99,.5,0,.75-.33,.75-1,0-.3-.06-.54-.18-.71-.13-.17-.3-.25-.53-.25s-.41,.08-.54,.25c-.14,.17-.21,.41-.21,.72Zm-2.17,0c0-.61,.26-1.12,.77-1.54,.51-.42,1.2-.63,2.08-.63s1.59,.2,2.14,.61c.55,.4,.82,.93,.82,1.58s-.26,1.15-.79,1.57c-.52,.42-1.22,.63-2.08,.63-.93,0-1.65-.21-2.17-.63-.52-.42-.78-.94-.78-1.58Zm11.27,.05c0,.25,.06,.46,.19,.63,.13,.17,.31,.26,.55,.26,.25,0,.44-.09,.56-.26,.12-.17,.18-.38,.18-.64,0-.28-.07-.51-.2-.68-.13-.18-.31-.26-.54-.26-.24,0-.43,.09-.56,.28-.13,.18-.19,.41-.19,.67Zm-1.82,3.58l.59-1.05c.33,.14,.78,.21,1.34,.21,.37,0,.66-.05,.87-.16,.21-.1,.35-.22,.41-.36,.06-.14,.09-.34,.09-.59-.43,.22-.91,.32-1.44,.32-.62,0-1.14-.18-1.56-.53-.43-.35-.65-.84-.65-1.46,0-.65,.22-1.17,.67-1.56,.44-.38,.98-.58,1.61-.58,.52,0,.97,.11,1.36,.34v-.26h2.66v1.3h-.52v2.27c0,.51-.05,.9-.14,1.17-.09,.27-.26,.51-.5,.7-.24,.2-.55,.35-.91,.44-.36,.09-.84,.14-1.44,.14-.27,0-.51,0-.72-.03-.21-.02-.45-.05-.72-.09-.46-.07-.8-.15-1-.23Zm8.77-3.93h1.21c0-.09,0-.13,0-.15,0-.22-.06-.41-.17-.56-.11-.15-.26-.22-.45-.22s-.34,.08-.44,.24c-.1,.16-.15,.36-.15,.6,0,.03,0,.06,0,.09Zm1.37,1.08l1.77,.22c-.08,.19-.19,.35-.33,.5-.14,.15-.32,.27-.52,.38-.41,.22-.91,.33-1.48,.33-.97,0-1.69-.2-2.18-.6-.49-.4-.73-.92-.73-1.57s.24-1.16,.72-1.58c.48-.42,1.12-.63,1.93-.63s1.42,.2,1.91,.6c.48,.4,.74,1,.77,1.81h-3.26c0,.67,.26,1.01,.75,1.01,.3,0,.51-.15,.64-.46Zm6.11-.2v1.27c-.14,.09-.34,.18-.61,.25-.28,.07-.55,.11-.8,.11-.32,0-.6-.05-.83-.16-.24-.11-.41-.25-.53-.44-.07-.11-.11-.2-.14-.29-.03-.09-.05-.19-.07-.29-.02-.19-.03-.55-.03-1.09v-.7h-.53v-1.3h.53v-.64l2.15-1.02v1.66h.87v1.3h-.87v.8c0,.26,.02,.44,.07,.53,.05,.09,.14,.13,.29,.13,.14,0,.31-.04,.5-.13Zm3.3,1.51h-2.13v-1.55h2.13v1.55Zm3.64,0h-2.13v-1.55h2.13v1.55Zm3.64,0h-2.13v-1.55h2.13v1.55Z"/><path class="x" d="M892.96,242.82h-1.38l-.29,1.67h-.67l.29-1.67h-1.01v-.64h1.13l.25-1.49h-1.01v-.64h1.13l.29-1.67h.66l-.29,1.67h1.38l.29-1.67h.67l-.29,1.67h1.01v.64h-1.13l-.25,1.49h1.01v.64h-1.13l-.29,1.67h-.66l.29-1.67Zm.1-.64l.26-1.49h-1.38l-.26,1.49h1.38Zm9.52-4.45v7.66h-.89v-3.18h-1.35v-.73h1.35v-1.42h-1.35v-.73h1.35v-1.62h.89Zm-2.36,3.11c0,.86-.19,1.52-.57,1.96-.37,.44-.87,.66-1.49,.66s-1.13-.22-1.5-.66c-.37-.44-.56-1.1-.56-1.96s.19-1.52,.56-1.96c.38-.44,.88-.66,1.5-.66s1.11,.22,1.49,.66c.38,.44,.57,1.09,.57,1.96Zm-.93-.45c0-.47-.1-.82-.31-1.07-.2-.25-.48-.38-.82-.38s-.63,.13-.83,.38c-.2,.24-.31,.6-.31,1.07v.89c0,.47,.1,.83,.31,1.08,.2,.24,.48,.37,.83,.37s.62-.12,.82-.37c.2-.25,.31-.61,.31-1.08v-.89Zm10.9,1.61h-5.24v-3.75h5.18v.75h-4.3v2.25h4.36v.75Zm.92,1.79v.75h-7.17v-.75h7.17Zm6.02-4.52v-.65h-4.16v-.7h5.01v2.02h-4.13v.65h4.33v.7h-5.19v-2.02h4.14Zm1.96,2.64v.73h-7.17v-.73h7.17Zm-6.14,3.24v-1.9h5.1v2.48h-4.53c-.19,0-.33-.05-.43-.15-.09-.1-.14-.24-.14-.43Zm4.23-1.23h-3.37v1.15h3.37v-1.15Zm2.66,2.12v-.82h4.38v.82h-4.38Zm5.94-3.86l-.5-.69c.75-.37,1.34-.71,1.75-1.01,.42-.31,.71-.63,.88-.94,.17-.31,.26-.67,.26-1.06v-.33h.92v.36c0,.34-.04,.66-.12,.94-.08,.27-.21,.53-.39,.78l.05,.03,.3-.22c.09-.08,.19-.11,.29-.11,.09,0,.18,.03,.28,.1l2.35,1.45-.52,.7-2.53-1.64c-.08-.05-.16-.08-.25-.08-.09,0-.17,.03-.24,.09-.25,.26-.58,.52-.98,.79-.4,.26-.92,.55-1.55,.87Zm6.37,1.62v.75h-7.17v-.75h7.17Zm8.2-4.02v.74h-1.19v2.37h-.88v-5.16h.88v2.05h1.19Zm-3.01-.83h-4.32v-.73h4.32v.73Zm.36,3.04c-.59,.09-1.31,.15-2.17,.2-.85,.04-1.74,.06-2.66,.06l-.08-.72c.47,0,.82,0,1.06,0l-.21-2.04,.85-.08,.13,2.11,.55-.03c.23-.01,.4-.02,.51-.02l.19-2.07,.85,.08-.24,1.95c.48-.04,.86-.08,1.14-.11l.09,.67Zm-.29,2.03c.07,0,.15,.02,.23,.06l1.99,1.03-.48,.7-2.2-1.22c-.08-.04-.15-.06-.22-.06-.07,0-.14,.02-.22,.07-.22,.2-.52,.4-.88,.59-.36,.2-.82,.41-1.36,.64l-.46-.68c.66-.26,1.18-.5,1.54-.72,.36-.22,.61-.44,.75-.66,.14-.23,.21-.48,.21-.76v-.24h.92v.29c0,.25-.03,.48-.1,.68-.06,.2-.17,.4-.32,.58l.05,.03,.26-.19c.1-.08,.2-.12,.3-.12Zm3.46,2.02v-.82h4.38v.82h-4.38Zm10.87-5.39h-1.43v-.74h1.43v-2.17h.88v5.78h-.88v-2.87Zm-5.03,2.14l-.48-.65c.78-.3,1.38-.59,1.8-.85,.43-.26,.74-.55,.92-.85l-2.6,.23-.12-.74,2.95-.14c.01-.13,.02-.22,.02-.29v-.53h-2.62v-.72h3.47v1.21c0,.51-.11,.95-.32,1.32-.22,.37-.56,.72-1.04,1.03-.48,.31-1.13,.64-1.97,.98Zm6.07,2.05v.73h-4.55c-.19,0-.33-.05-.43-.15-.09-.1-.14-.24-.14-.43v-2.02h.88v1.87h4.23Zm7.82-3.11h-.88v-4h.88v4Zm-4.23-1.51s-.08,.02-.11,.05c-.17,.26-.38,.51-.63,.77-.25,.25-.57,.54-.94,.86l-.66-.57c.47-.38,.84-.73,1.11-1.03,.27-.3,.46-.6,.58-.9,.12-.3,.18-.63,.18-.99v-.47h.89v.53c0,.53-.11,1.01-.32,1.44l.04,.03,.19-.17c.09-.07,.17-.1,.24-.1,.07,0,.15,.03,.23,.1l1.52,1.34-.62,.63-1.58-1.47s-.08-.05-.12-.05Zm4.42,4.79v.76h-4.6c-.19,0-.33-.05-.43-.15-.09-.1-.14-.24-.14-.43v-1.59h4.09v-.66h-4.13v-.75h5.03v2.15h-4.09v.67h4.27Zm7.77-7.27v7.66h-.88v-4.24h-1.38v-.74h1.38v-2.68h.88Zm-2.01,4.86l.11,.71c-.93,.17-2.07,.26-3.4,.26h-.87v-3.09h2.51v-1.43h-2.54v-.73h3.41v2.9h-2.51v1.64h.05c1.25,0,2.32-.08,3.23-.24Z"/><path class="ad" d="M875.33,230.28h92.68c8.91,0,16.13,7.22,16.13,16.13v6.83h-108.8v-22.96Z"/><path class="aw" d="M876.33,218.65c0-.42,.22-.76,.66-1.01,.44-.26,1.1-.38,1.97-.38s1.52,.13,1.96,.38c.44,.26,.66,.59,.66,1.01s-.22,.77-.66,1.02-1.09,.38-1.97,.38-1.53-.13-1.97-.38-.66-.6-.66-1.02Zm.71,.05c0,.25,.16,.45,.47,.61,.32,.16,.8,.24,1.44,.24s1.12-.08,1.43-.24c.32-.16,.48-.36,.48-.61v-.1c0-.25-.16-.45-.48-.61-.31-.16-.79-.24-1.43-.24s-1.12,.08-1.44,.24c-.31,.16-.47,.36-.47,.61v.1Zm2.25,2.48v.8h2.16v1.88h-4.31v.82h4.54v.55h-4.74c-.14,0-.25-.04-.32-.11s-.11-.19-.11-.33v-1.44h4.31v-.82h-4.37v-.54h2.19v-.8h-3.25v-.54h7.14v.54h-3.24Zm11.21-.52v.58h-7.14v-.58h5.1c.2-.82,.3-1.67,.3-2.53v-.03h-4.39v-.56h5.05v.51c0,.84-.1,1.71-.3,2.61h1.38Zm-3.13,2.76c.06,0,.12,.02,.19,.05l2.32,1.28-.38,.51-2.39-1.36c-.08-.05-.15-.07-.22-.07-.06,0-.13,.02-.2,.07l-.03,.03c-.23,.21-.53,.42-.9,.64-.37,.22-.84,.46-1.41,.73l-.36-.52c.72-.31,1.27-.6,1.64-.85,.38-.25,.64-.5,.78-.74,.15-.25,.22-.54,.22-.87v-.24h.69v.27c0,.27-.03,.51-.1,.72-.06,.21-.17,.41-.32,.6l.04,.02,.21-.16c.08-.06,.15-.09,.22-.09Zm10.05-3.42h-5.02v-2.7h.66v.85h3.72v-.85h.65v2.7Zm-.65-1.35h-3.72v.84h3.72v-.84Zm-1.53,2.59v.77h2.16v1.85h-4.32v.81h4.55v.54h-4.74c-.14,0-.25-.04-.32-.11-.08-.08-.11-.19-.11-.33v-1.42h4.31v-.8h-4.37v-.53h2.18v-.77h-3.24v-.55h7.14v.55h-3.24Zm11.21-.58v.58h-7.14v-.58h5.1c.2-.82,.3-1.67,.3-2.53v-.03h-4.39v-.56h5.05v.51c0,.84-.1,1.71-.3,2.61h1.38Zm-3.13,2.76c.06,0,.12,.02,.19,.05l2.32,1.28-.38,.51-2.39-1.36c-.08-.05-.15-.07-.22-.07-.06,0-.13,.02-.2,.07l-.03,.03c-.23,.21-.53,.42-.9,.64-.37,.22-.84,.46-1.41,.73l-.36-.52c.72-.31,1.27-.6,1.64-.85,.38-.25,.64-.5,.78-.74,.15-.25,.22-.54,.22-.87v-.24h.69v.27c0,.27-.03,.51-.1,.72-.06,.21-.17,.41-.32,.6l.04,.02,.21-.16c.08-.06,.15-.09,.22-.09Zm4.83-.45c.19,0,.32,.05,.4,.15,.09,.09,.13,.22,.13,.37v.12c0,.24-.07,.5-.21,.79-.14,.29-.34,.55-.59,.76h-.59c.17-.19,.31-.36,.42-.53,.11-.16,.19-.35,.24-.55-.12-.03-.2-.08-.26-.17-.05-.08-.08-.18-.08-.3v-.12c0-.15,.04-.27,.12-.37,.09-.1,.22-.15,.41-.15Zm10.47-5.7v7.59h-.66v-3.19h-1.49v-.54h1.49v-1.64h-1.49v-.54h1.49v-1.67h.66Zm-2.33,3.07c0,.85-.18,1.5-.55,1.93s-.85,.66-1.45,.66-1.09-.22-1.46-.66c-.37-.44-.55-1.08-.55-1.93s.18-1.5,.55-1.93c.37-.44,.85-.66,1.46-.66s1.08,.22,1.45,.66c.37,.44,.55,1.08,.55,1.93Zm-.7-.35c0-.55-.12-.97-.36-1.25-.24-.29-.55-.44-.94-.44s-.71,.15-.95,.44c-.24,.29-.36,.7-.36,1.25v.7c0,.55,.12,.97,.36,1.26,.24,.29,.56,.43,.95,.43s.71-.14,.94-.43c.24-.29,.36-.71,.36-1.26v-.7Zm10.69,1.47h-5.18v-3.67h5.1v.57h-4.44v2.53h4.51v.57Zm.93,1.97v.57h-7.14v-.57h7.14Zm6.19-4.6v-.86h-4.29v-.52h4.93v1.9h-4.24v.85h4.46v.52h-5.11v-1.89h4.24Zm1.78,2.66v.54h-7.14v-.54h7.14Zm-6.08,3.25v-1.96h5.02v2.41h-4.58c-.14,0-.25-.04-.32-.11-.08-.08-.11-.19-.11-.33Zm4.37-1.45h-3.73v1.39h3.73v-1.39Zm3.49-4.62c0-.43,.22-.76,.66-1.01,.44-.26,1.09-.38,1.97-.38s1.53,.13,1.97,.38c.44,.25,.66,.59,.66,1.01s-.22,.77-.66,1.02-1.09,.38-1.97,.38-1.53-.13-1.97-.38-.66-.6-.66-1.02Zm4.54,.04v-.1c0-.25-.16-.45-.48-.61-.31-.16-.79-.24-1.43-.24s-1.12,.08-1.44,.24c-.31,.16-.47,.36-.47,.61v.1c0,.25,.16,.46,.47,.62,.32,.16,.8,.24,1.44,.24s1.12-.08,1.43-.24c.32-.16,.48-.37,.48-.62Zm1.65,1.97v.56h-7.14v-.56h7.14Zm-6.03,4.09v-1.43h4.31v-.82h-4.37v-.54h5v1.87h-4.31v.83h4.54v.54h-4.74c-.14,0-.25-.04-.32-.11-.08-.08-.11-.19-.11-.33Zm16.48-5.02h-1.22v1.9h-.66v-4.38h.66v1.92h1.22v.56Zm-6.87,1.87l-.35-.51c.79-.3,1.38-.57,1.79-.81,.41-.24,.7-.5,.87-.76,.17-.27,.25-.59,.25-.97v-.33h-2.69v-.56h3.37v.82c0,.51-.1,.93-.29,1.27-.19,.33-.51,.64-.96,.93-.45,.28-1.12,.59-1.99,.93Zm.92,.5h4.73v3.05h-4.3c-.14,0-.25-.04-.32-.11-.08-.08-.11-.19-.11-.33v-2.61Zm.66,2.49h3.4v-1.94h-3.4v1.94Zm10.78-6.73h-2.66v-.54h2.66v.54Zm-1.66,1.34h-2.41v-.54h5.49v.54h-2.41c-.03,.34-.15,.64-.38,.87l.06,.02,.17-.11c.08-.06,.17-.09,.25-.09,.06,0,.13,.01,.2,.04l2.41,1.02-.36,.49-2.54-1.14c-.07-.03-.14-.05-.22-.05-.09,0-.16,.02-.23,.06h-.03c-.23,.18-.53,.36-.92,.55-.38,.18-.87,.38-1.47,.6l-.35-.48c.66-.23,1.19-.44,1.57-.63,.38-.19,.66-.37,.84-.55,.17-.19,.28-.39,.31-.61Zm3.9,3.38h-3.24v2.56h-.66v-2.56h-3.24v-.55h7.14v.55Zm6.35-4.14h-4.62v-.57h5.28v.62c0,1.29-.13,2.53-.38,3.7l-.65-.1c.24-1.18,.37-2.37,.37-3.57v-.08Zm1.63,4.97v.56h-7.14v-.56h2.8v-2.81h.66v2.81h3.68Zm9.63-1.84h-.67v-4.33h.67v4.33Zm-4.19-1.87s-.08,.02-.11,.06c-.15,.24-.35,.5-.59,.76-.24,.26-.58,.58-1.01,.98l-.5-.43c.5-.44,.89-.81,1.15-1.12,.27-.31,.46-.62,.58-.93,.12-.31,.18-.66,.18-1.05v-.48h.67v.52c0,.55-.1,1.04-.31,1.45l.04,.03,.14-.12c.06-.05,.13-.08,.18-.08,.07,0,.13,.03,.19,.09l1.68,1.53-.48,.46-1.7-1.62s-.08-.05-.12-.05Zm-.83,2.34h5.15v.54h-5.15v-.54Zm5.22,2.55v.52h-5.3v-.52h1.29l-.27-1.54,.66-.06,.22,1.6h1.51l.22-1.6,.66,.06-.27,1.54h1.28Zm8.59-3.81h-1.26v4.06h-.66v-7.59h.66v2.97h1.26v.56Zm-2.84,1.24l.09,.53c-.89,.18-2.01,.27-3.34,.27h-.93v-4.98h3.49v.56h-2.83v3.87h.25c1.28,0,2.37-.08,3.26-.25Zm9.34-1.3h-1.61v-.54h1.61v-1.19h-1.61v-.54h1.61v-1.22h.66v5.76h-.66v-2.27Zm-1.91,.73h-3.58v-3.73h3.58v3.73Zm-.66-3.18h-2.27v2.62h2.27v-2.62Zm3.39,6.17v.55h-4.58c-.14,0-.25-.04-.32-.11-.08-.08-.11-.19-.11-.33v-2.18h.67v2.07h4.35Z"/><path class="ab" d="M952.99,491.29c0-17.48-14.17-31.65-31.65-31.65s-31.65,14.17-31.65,31.65,14.17,31.65,31.65,31.65,31.65-14.17,31.65-31.65Z"/><path class="ab" d="M889.69,491.29c0-17.48-14.17-31.65-31.65-31.65s-31.65,14.17-31.65,31.65,14.17,31.65,31.65,31.65,31.65-14.17,31.65-31.65Z"/><path class="ab" d="M1079.58,491.29c0-17.48-14.17-31.65-31.65-31.65s-31.65,14.17-31.65,31.65,14.17,31.65,31.65,31.65,31.65-14.17,31.65-31.65Z"/><path class="ab" d="M1016.29,491.29c0-17.48-14.17-31.65-31.65-31.65s-31.65,14.17-31.65,31.65,14.17,31.65,31.65,31.65,31.65-14.17,31.65-31.65Z"/><path class="ac" d="M918.79,511.58h-2.44v-1.42h.52v-3.1h-.52v-1.42h2.82l2.16,3.11v-1.68h-.48v-1.42h2.4v1.42h-.52v4.6h-1.96l-2.5-3.59v2.09h.53v1.42Zm7.41-2.4h1.21c0-.09,0-.13,0-.14,0-.23-.06-.41-.17-.56-.11-.15-.27-.22-.45-.22s-.34,.08-.44,.24c-.1,.16-.15,.36-.15,.6,0,.03,0,.06,0,.09Zm1.37,1.09l1.77,.22c-.08,.19-.19,.35-.33,.5-.14,.15-.32,.27-.52,.38-.41,.22-.91,.33-1.48,.33-.97,0-1.69-.2-2.18-.6-.49-.4-.73-.92-.73-1.57s.24-1.16,.72-1.58c.48-.42,1.12-.63,1.94-.63s1.42,.2,1.91,.6c.48,.4,.74,1,.77,1.81h-3.26c0,.67,.26,1.01,.75,1.01,.3,0,.51-.15,.64-.46Zm5.85,1.36h-1.7l-1.27-2.89h-.44v-1.3h2.79v1.3h-.41l.49,1.38,1.02-2.68h1.59l.93,2.68,.53-1.38h-.4v-1.3h2.02v1.3h-.41l-1.2,2.89h-1.7l-.95-2.12-.89,2.12Zm10.89-4.49l-.56,1.64h1.06l-.5-1.64Zm-.56,4.43h-2.35v-1.42h.45l1.11-3.1h-.48v-1.42h4.27v1.42h-.48l1.14,3.1h.44v1.42h-3.1v-1.3h.52l-.23-.75h-1.52l-.26,.75h.49v1.3Zm7.99,0h-3.34v-1.3h.56v-1.54h-.56v-1.3h2.57v1.04c.1-.26,.25-.48,.45-.67,.19-.19,.39-.31,.59-.36,.19-.05,.47-.08,.84-.08v1.82s-.11,0-.18,0c-.44,0-.76,.04-.98,.13-.22,.09-.37,.21-.45,.36-.08,.15-.13,.36-.13,.61h.63v1.3Zm5.27,0h-3.34v-1.3h.56v-1.54h-.56v-1.3h2.57v1.04c.1-.26,.25-.48,.45-.67,.19-.19,.39-.31,.59-.36,.19-.05,.47-.08,.84-.08v1.82s-.11,0-.18,0c-.44,0-.76,.04-.98,.13-.22,.09-.37,.21-.45,.36-.08,.15-.13,.36-.13,.61h.63v1.3Zm4.76,0h-2.93v-1.3h.43v-1.54h-.43v-1.3h2.58v2.84h.36v1.3Zm-2.69-5.31c0-.22,.12-.41,.35-.54,.23-.14,.51-.21,.85-.21s.62,.07,.83,.21c.21,.14,.31,.32,.31,.53,0,.23-.11,.4-.32,.53-.22,.13-.5,.2-.83,.2s-.62-.06-.85-.18c-.22-.12-.34-.3-.34-.55Zm6.84,5.37h-1.72l-1.55-2.89h-.41v-1.3h2.92v1.3h-.46l.69,1.58,.73-1.58h-.41v-1.3h2.14v1.3h-.4l-1.52,2.89Zm5.75-1.11v-.76c-.19-.1-.39-.15-.61-.15-.19,0-.34,.05-.45,.15-.11,.1-.17,.24-.17,.4s.06,.3,.17,.41c.12,.11,.25,.16,.4,.16,.27,0,.48-.07,.65-.22Zm-1.61-1.93l-1.68-.17c.19-.41,.48-.69,.9-.86,.41-.17,1.01-.25,1.8-.25,.29,0,.55,0,.79,.03,.23,.02,.44,.04,.62,.08,.38,.07,.66,.18,.84,.33,.18,.15,.31,.31,.38,.49,.07,.18,.11,.46,.11,.84v1.2h.53v1.3h-2.68v-.28c-.37,.24-.87,.36-1.49,.36-.58,0-1.02-.13-1.32-.38-.3-.26-.45-.56-.45-.91,0-.39,.18-.7,.55-.95,.36-.25,.84-.37,1.43-.37,.54,0,.96,.07,1.28,.21v-.12c0-.26-.02-.44-.06-.54-.04-.11-.13-.2-.26-.28-.14-.07-.31-.11-.5-.11-.34,0-.61,.13-.79,.4Zm7.97,2.99h-2.97v-1.3h.44v-3.34h-.44v-1.3h2.59v4.64h.38v1.3Z"/><rect class="af" x="865.21" y="530.17" width="78.73" height="78.73"/><rect class="af" x="949.96" y="530.17" width="78.73" height="78.73"/></g><image transform="translate(949.96 527.66) scale(.18)" xlink:href="../../../../../Downloads/1 (2)/unsplash_mh45sGexhMI.png"/><image transform="translate(865.76 527.66) scale(.18)" xlink:href="../../../../../Downloads/1 (2)/unsplash_p3O5f4u95Lo.png"/><image class="ao" transform="translate(874.91 271.58) scale(.18)" xlink:href="../../../../../Downloads/unsplash_8jg7vumdUlU (1).png"/></g></g></g></g></g></g></g></svg>